<svg xmlns="http://www.w3.org/2000/svg" viewBox="0 0 77.27 77.27"><defs><style>.cls-1,.cls-2{fill:#fff;}.cls-1{fill-rule:evenodd;}</style></defs><g id="Capa_2" data-name="Capa 2"><g id="Logotipos"><path class="cls-1" d="M30.29,64.9H40V42.55h7.16l1.43-9H40V26.69c0-2.54,2.42-4,4.73-4H48.9V15.23l-7.49-.33c-7.16-.44-11.12,5.18-11.12,11.9v6.71H22.14v9h8.15Z"/><path class="cls-2" d="M38.64,77.27A38.64,38.64,0,1,1,77.27,38.64,38.67,38.67,0,0,1,38.64,77.27ZM38.64,2a36.61,36.61,0,1,0,36.6,36.61A36.66,36.66,0,0,0,38.64,2Z"/></g></g></svg>