<svg xmlns="http://www.w3.org/2000/svg" viewBox="0 0 77.27 77.27"><defs><style>.cls-1,.cls-2{fill:#7a6a33;}.cls-2{fill-rule:evenodd;}</style></defs><g id="Capa_2" data-name="Capa 2"><g id="Logotipos"><path class="cls-1" d="M38.64,77.27A38.64,38.64,0,1,1,77.27,38.64,38.67,38.67,0,0,1,38.64,77.27ZM38.64,2a36.61,36.61,0,1,0,36.6,36.61A36.66,36.66,0,0,0,38.64,2Z"/><path class="cls-2" d="M28.13,16H49A12.3,12.3,0,0,1,61.27,28.27V49.06A12.3,12.3,0,0,1,49,61.29H28.13A12.29,12.29,0,0,1,15.9,49.06V28.27A12.3,12.3,0,0,1,28.13,16Zm22.63,7.91h0a2.63,2.63,0,0,1,2.6,2.6h0a2.63,2.63,0,0,1-2.6,2.59h0a2.56,2.56,0,0,1-2.59-2.59h0a2.56,2.56,0,0,1,2.59-2.6ZM38.53,26.32h.11A12.48,12.48,0,0,1,51,38.66h0A12.41,12.41,0,0,1,38.64,51h-.11A12.33,12.33,0,0,1,26.29,38.66h0A12.39,12.39,0,0,1,38.53,26.32Zm0,4.22h.11a8.18,8.18,0,0,1,8.12,8.12h0a8.2,8.2,0,0,1-8.12,8.23h-.11a8.2,8.2,0,0,1-8.12-8.23h0a8.18,8.18,0,0,1,8.12-8.12ZM28.24,19.93H48.92a8.46,8.46,0,0,1,8.45,8.45V49a8.46,8.46,0,0,1-8.45,8.44H28.24A8.45,8.45,0,0,1,19.8,49V28.38a8.46,8.46,0,0,1,8.44-8.45Z"/></g></g></svg>