<svg xmlns="http://www.w3.org/2000/svg" xmlns:xlink="http://www.w3.org/1999/xlink" viewBox="0 0 502.97 491.96"><defs><style>.cls-1{fill:url(#Degradado_sin_nombre_25);}.cls-2{fill:url(#Degradado_sin_nombre_25-2);}.cls-3{fill:url(#Degradado_sin_nombre_25-3);}.cls-4{fill:url(#Degradado_sin_nombre_25-4);}.cls-5{fill:url(#Degradado_sin_nombre_25-5);}.cls-6{fill:url(#Degradado_sin_nombre_25-6);}.cls-7{fill:url(#Degradado_sin_nombre_25-7);}.cls-8{fill:url(#Degradado_sin_nombre_25-8);}.cls-9{fill:url(#Degradado_sin_nombre_25-9);}.cls-10{fill:url(#Degradado_sin_nombre_25-10);}.cls-11{fill:url(#Degradado_sin_nombre_25-11);}.cls-12{fill:url(#Degradado_sin_nombre_25-12);}.cls-13{fill:url(#Degradado_sin_nombre_25-13);}.cls-14{fill:url(#Degradado_sin_nombre_25-14);}.cls-15{fill:url(#Degradado_sin_nombre_25-15);}.cls-16{fill:url(#Degradado_sin_nombre_27);}.cls-17{fill:url(#Degradado_sin_nombre_25-16);}.cls-18{fill:url(#Degradado_sin_nombre_26);}</style><linearGradient id="Degradado_sin_nombre_25" y1="153.54" x2="352.49" y2="153.54" gradientUnits="userSpaceOnUse"><stop offset="0" stop-color="#685856"/><stop offset="0.5" stop-color="#947824"/><stop offset="1" stop-color="#685856"/></linearGradient><linearGradient id="Degradado_sin_nombre_25-2" x1="325.24" y1="208.6" x2="351.32" y2="208.6" xlink:href="#Degradado_sin_nombre_25"/><linearGradient id="Degradado_sin_nombre_25-3" x1="353.37" y1="208.69" x2="370.77" y2="208.69" xlink:href="#Degradado_sin_nombre_25"/><linearGradient id="Degradado_sin_nombre_25-4" x1="286.61" y1="208.65" x2="311.7" y2="208.65" xlink:href="#Degradado_sin_nombre_25"/><linearGradient id="Degradado_sin_nombre_25-5" x1="372.61" y1="208.8" x2="391.39" y2="208.8" xlink:href="#Degradado_sin_nombre_25"/><linearGradient id="Degradado_sin_nombre_25-6" x1="271.59" y1="208.96" x2="286.72" y2="208.96" xlink:href="#Degradado_sin_nombre_25"/><linearGradient id="Degradado_sin_nombre_25-7" x1="255.92" y1="208.63" x2="266.67" y2="208.63" xlink:href="#Degradado_sin_nombre_25"/><linearGradient id="Degradado_sin_nombre_25-8" x1="130.44" y1="117.45" x2="185.99" y2="117.45" xlink:href="#Degradado_sin_nombre_25"/><linearGradient id="Degradado_sin_nombre_25-9" x1="112.26" y1="23.52" x2="312.01" y2="23.52" xlink:href="#Degradado_sin_nombre_25"/><linearGradient id="Degradado_sin_nombre_25-10" x1="11.02" y1="366.78" x2="425.12" y2="366.78" xlink:href="#Degradado_sin_nombre_25"/><linearGradient id="Degradado_sin_nombre_25-11" x1="377.12" y1="178.81" x2="502.97" y2="178.81" xlink:href="#Degradado_sin_nombre_25"/><linearGradient id="Degradado_sin_nombre_25-12" x1="157.93" y1="30.7" x2="306.71" y2="30.7" xlink:href="#Degradado_sin_nombre_25"/><linearGradient id="Degradado_sin_nombre_25-13" x1="195.62" y1="444.53" x2="404.7" y2="444.53" xlink:href="#Degradado_sin_nombre_25"/><linearGradient id="Degradado_sin_nombre_25-14" x1="368.31" y1="183.46" x2="484.33" y2="183.46" xlink:href="#Degradado_sin_nombre_25"/><linearGradient id="Degradado_sin_nombre_25-15" x1="30.86" y1="331.03" x2="120.38" y2="331.03" xlink:href="#Degradado_sin_nombre_25"/><linearGradient id="Degradado_sin_nombre_27" x1="88.69" y1="329.41" x2="520.08" y2="329.41" gradientUnits="userSpaceOnUse"><stop offset="0.5" stop-color="#947824"/><stop offset="1" stop-color="#685856"/></linearGradient><linearGradient id="Degradado_sin_nombre_25-16" x1="444.83" y1="344.54" x2="463.35" y2="344.54" xlink:href="#Degradado_sin_nombre_25"/><linearGradient id="Degradado_sin_nombre_26" x1="194.42" y1="376.2" x2="493.61" y2="376.2" gradientUnits="userSpaceOnUse"><stop offset="0.41" stop-color="#947824"/><stop offset="1" stop-color="#685856"/></linearGradient></defs><g id="Capa_2" data-name="Capa 2"><g id="Textos"><path class="cls-1" d="M57.24,197.62a68.14,68.14,0,0,0,11.37-4.47c3.4-1.7,4.67-5,4.33-8.69A3.61,3.61,0,0,0,71.45,182c-.44-.27-1.61.44-2.34.88-2.7,1.64-5.21,3.66-8,5A90.79,90.79,0,0,1,26,196.2a51.13,51.13,0,0,1-14.81-1.84c-5.16-1.42-7.3-6-5.15-10.83a60,60,0,0,1,7.82-12.71c8.27-10.44,18.7-18.63,29.25-26.59a463,463,0,0,1,60.48-38.46c13-7,26.49-13.15,39.87-19.44a180.46,180.46,0,0,1,38.75-13.2c6.08-1.31,12.25-2.41,18.55-1.16a13.77,13.77,0,0,1,11.31,11.25c1.25,7,.33,13.93-1.22,20.73-2.87,12.64-7.79,24.58-12.53,36.6-2,5.1-4.81,7.91-10.28,9.41a151.38,151.38,0,0,0-47.08,22c-7.28,5.09-14,10.86-18.57,18.66-3.67,6.21-3.52,12.18.82,15.81s9.72,4.15,15.22,3.9c-.12-3.57-1.87-5.43-4.86-6-2.12-.43-4.55-.81-6.13-2.08-2.63-2.09-2.33-5.25.12-9.38,3.4-5.74,8.42-9.9,13.64-13.82,13.54-10.17,28.73-17.08,44.7-22.42,1.63-.54,3.31-.91,5.49-1.5a32.34,32.34,0,0,1-1.22,3.11c-8.2,15.55-15.86,31.41-24.75,46.55-13,22.19-26.9,43.88-40.5,65.73-1.35,2.18-.54,2.85,1.42,3.14,6.26,1.78,8.09-4.17,8.77-5.27,3.55-5.76,8.42-10.56,12-16.33,2.54-4.1,5.76-7.78,8.28-11.89,9.9-16.07,20-32,29.32-48.42,7.18-12.59,13.33-25.76,20.07-38.59a5.49,5.49,0,0,1,3.37-2.35,210.13,210.13,0,0,1,47.47-4.13,18.6,18.6,0,0,1,2.55.43c-1.75,3.15-3.53,5.88-4.84,8.81q-4.31,9.67-8.21,19.51c-7.27,18.24-14.33,36.54-16.67,56.23-.67,5.63-1.34,11.27.71,16.81,1,2.78,4.17,4.05,7.73,3,3-.84,1.49-2.83,1.2-4.52a10.19,10.19,0,0,1-.13-1.11,76.51,76.51,0,0,1,3.45-25.8c3.08-10.51,6.35-21,10.42-31.17,5.32-13.27,11.51-26.19,17.28-39.28a2.73,2.73,0,0,1,3.32-1.76c4.52.64,9,1.48,13.56,1.7,2.15.11,4.41-.88,6.51-1.66a2.86,2.86,0,0,0,1.22-2.22c0-.4-1.15-1.08-1.87-1.24-2.27-.5-4.57-.86-6.87-1.2-3.82-.56-7.64-1.06-11.68-1.61.42-1,.6-1.66.9-2.21,5-9.14,9.6-18.52,15.09-27.36Q302.65,90.47,317,69.55A128.38,128.38,0,0,1,340.35,43.7c3.42-2.85,7.2-5.25,10.76-7.92a7.9,7.9,0,0,0,1.38-1.85c-.74-.28-1.5-.86-2.2-.78a10.87,10.87,0,0,0-4.52,1.1,124.08,124.08,0,0,0-22.88,18.21A278.85,278.85,0,0,0,293.4,87.78a436.38,436.38,0,0,0-30.75,50.46c-1,1.93-2.11,2.7-4.31,2.6a190,190,0,0,0-39.79,2.26c-3.18.52-6.37.91-10,1.43.38-1.2.6-2,.87-2.73,2.61-7.15,5.48-14.21,7.79-21.46,3.5-11,6.23-22.19,5.53-33.89-.54-8.85-3.2-16.68-11.35-21.48-6.07-3.58-12.75-3.73-19.53-3-11.67,1.2-22.78,4.7-33.7,8.71-22,8.07-42.81,18.66-62.86,30.72-12.6,7.57-25.31,15.08-37.18,23.7C45.2,134.46,33,144.83,20.88,155.31c-7.49,6.51-14.36,13.86-18.59,23.1-4.62,10.11-2.5,17.76,8.66,21.25a54.26,54.26,0,0,0,12.63,2.05A98.33,98.33,0,0,0,57.24,197.62Z"/><path class="cls-2" d="M325.24,220.62a4.86,4.86,0,0,0,1,.26c4.46,0,8.93.16,13.39,0a11.62,11.62,0,0,0,11.54-10.42c.81-6.42-2.5-12.08-8.82-13.21-5.56-1-11.34-.75-17-1.05,2.77,2.13,2.94,2.16,2.93,5.73,0,4.82-.35,9.63-.34,14.45C327.94,218.5,327.67,220.05,325.24,220.62Zm7.22-12.21h0c0-2.6,0-5.19,0-7.79,0-1.71.76-2.48,2.5-2.59,4.38-.3,9.1,2.07,10.74,5.55,1.92,4,1.05,9.89-2,13-2.68,2.7-6,3.22-9.52,2.33a3.22,3.22,0,0,1-1.64-2.41C332.33,213.79,332.46,211.09,332.46,208.41Z"/><path class="cls-3" d="M356.46,201.61c-.1,4.92-.16,9.84-.1,14.76,0,2-.23,3.64-3,3.72.13.26.26.52.38.79h13.37c3.38,0,4.16-1.38,2.8-4.32-.85.84-1.64,2.3-2.72,2.56-4.74,1.15-6.27-.16-6.41-4.93a5.23,5.23,0,0,0,0-.56c-.34-4.47.34-5.2,4.67-4.49,1,.16,1.8,1.15,2.81,1.84v-5.67c-.57.71-.72.93-.9,1.13-1.37,1.51-6.13,1.78-6.36.28a17.93,17.93,0,0,1,.17-7.41c.22-.79,3-.94,4.68-1.23s2.89.27,3.15,2.2c.06.43.55.8.85,1.2l.88-.42c-.66-1.5-1.22-4.25-2-4.31-5-.39-10.09-.2-15.15-.2l-.26.66C356.32,197.5,356.51,199.41,356.46,201.61Z"/><path class="cls-4" d="M303,220.73h8.75a22.23,22.23,0,0,1-2.17-3.13c-2.82-6.26-5.54-12.58-8.36-18.85a11,11,0,0,0-1.83-2.19,10.9,10.9,0,0,0-1.78,2.28c-2,4.81-3.68,9.74-5.8,14.48-1.14,2.53-1.64,5.6-5.15,7.23h7.21c0-.16,0-.32,0-.48l-2-.72c1.88-6.35,1.88-6.18,8.87-6.19,4.65,0,2.65,4.09,4.58,5.89l-2.5,1.25C302.86,220.45,302.9,220.59,303,220.73Zm-8.53-9.16c1.19-3.13,2.24-5.91,3.3-8.69l.84-.14c1.23,2.74,2.47,5.48,4,8.83Z"/><path class="cls-5" d="M372.61,220.15l.1.72h13.83c4.94,0,5.31-.43,4.52-5.7-1.05,4.89-4.57,4.29-8,4-.19,0-.37-.05-.56-.06-2,0-2.76-1-2.72-3,.09-4.65.16-9.3,0-13.94-.08-2.53.08-4.64,3.12-5.42H372.68c1,.93,2.64,1.78,2.67,2.68.22,6.66.12,13.33.12,19.85Z"/><path class="cls-6" d="M277.56,219c-1.71.91-3.06-.52-4-2.06-.38-.61-.89-1.14-1.61-2-.94,4.74-.18,5.72,4.27,6.16,5.07.5,8.53-2.31,8.75-7.24.19-4.27.12-8.55.4-12.81.09-1.43.88-2.8,1.35-4.21h-8.9c0,.13,0,.26,0,.39l2.95,1c.2,2.89.52,5.75.57,8.62a34.84,34.84,0,0,1-.45,8.31A7,7,0,0,1,277.56,219Z"/><path class="cls-7" d="M255.92,220.53h10.74c0-.19,0-.38,0-.57l-3.33-.85c0-6,0-12,0-18,0-2,.15-3.74,2.63-4.35h-9.49c.76.94,2.2,1.91,2.26,3,.31,5.17.34,10.37.25,15.56C258.94,217.39,259,219.91,255.92,220.53Z"/><path class="cls-8" d="M130.44,131.83c.06.17.11.35.16.53h34c0-.24,0-.47.05-.7l-3.11-.81c.65-7.09,1.31-7.55,10.32-7.32,4,.1,5.09,1.56,5.35,7.33l-3.35.85c0,.2,0,.4.08.6H186c-1.17-1.43-2.38-2.47-3-3.79-1.75-3.6-3.24-7.32-4.85-11-1.93-4.4-3.75-8.85-5.87-13.16-1.24-2.52-2.42-2.41-3.72.12-.78,1.52-1.34,3.15-2,4.75-2.6,6.47-5.22,13-7.78,19.44-.91,2.31-2.3,3.24-4.86,2.09v-6.21c-4.44,6.06-5,6.22-10,5.84-3-.23-4.36-1.66-4.39-4.51-.05-5.72,0-11.44-.05-17.16,0-2.61.51-4.87,3.44-5.8H131c1,1.24,2.71,2.42,2.75,3.64.25,8.08.13,16.17.13,24.07ZM169,109.35c1.94,4.34,3.44,7.71,5.23,11.73h-9.75Z"/><path class="cls-9" d="M256.71,5.89a240.48,240.48,0,0,1,53.63,6L312,6.16A245.74,245.74,0,0,0,112.26,47.05L124,45.86A239,239,0,0,1,256.71,5.89Z"/><path class="cls-10" d="M256.71,486.05C124.12,486.05,16.63,378.56,16.63,246c0-1.46,0-2.92.05-4.38L11,242.74c0,1.08,0,2.16,0,3.24a245.88,245.88,0,0,0,414.1,179.55l-6.5-2.3A239.18,239.18,0,0,1,256.71,486.05Z"/><path class="cls-11" d="M496.79,246a239.76,239.76,0,0,1-12.41,76.39l5.81,2.13A246.41,246.41,0,0,0,380.42,33.14l-3.3,5.09A240,240,0,0,1,496.79,246Z"/><path class="cls-12" d="M157.93,42l.26.34,10.67-1.1A223.55,223.55,0,0,1,305.61,28.14l1.1-3.79A228,228,0,0,0,169.34,36.84Q163.55,39.28,157.93,42Z"/><path class="cls-13" d="M197.5,459.83l-1.88,4.1A226.51,226.51,0,0,0,404.7,418.3l-4.87-1.73A222.95,222.95,0,0,1,197.5,459.83Z"/><path class="cls-14" d="M480.06,245.47a222.31,222.31,0,0,1-11.57,71l4.08,1.52a227.08,227.08,0,0,0-102.3-269l-2,3.48A222.47,222.47,0,0,1,480.06,245.47Z"/><path class="cls-15" d="M31,238.69c-.07,2.35-.11,4.7-.11,7.07A226,226,0,0,0,97.27,406.08a228,228,0,0,0,20.4,18.12l2.7-3.42v0A222.15,222.15,0,0,1,35,245.47c0-2.55,0-5.09.13-7.62Z"/><path class="cls-16" d="M308.48,316.75q.33-.81.63-1.62c1.14-2.93,2.28-5.83,3.36-8.55a11.4,11.4,0,0,0,.76-1.71c.29-.87.63-1.73,1-2.6l1.13-2.83c1.42-3.33,3-6.61,4.63-9.85a97.62,97.62,0,0,1,26-32,7.71,7.71,0,0,1,4.32-1.41c4.56-.17,9.14.17,13.69-.09,12.35-.69,24.76-1,37-2.55a96,96,0,0,0,32.4-10c4.4-2.29,8.24-5.91,11.82-9.46,2.79-2.77,2.37-7.41-.34-9.2a19.39,19.39,0,0,0-6.25-2.92c-13.67-3.1-27-.19-40.06,3.31-12,3.22-23.23,8.87-34,15.16-2.7,1.57-5.26,3.54-8.8,3.33l.26.18c-3.72-.33-7.38-.59-11-.79-1.51,0-3-.09-4.51-.15l-7.2-.29a329.67,329.67,0,0,0-47.59,2.44c-1.79.29-3.59.55-5.38.85-15.15,2.56-30.25,5.35-44.42,11.63a2.8,2.8,0,0,1-3.68-.78,15.28,15.28,0,0,0-3-2.83c-4.59-2.87-9.51-5.1-14.9-5.58h-.1c-17.37-1.15-30.32,3.62-38.59,8.25-1.7,1.16-3.09,2.09-4.41,3C169,261.25,167,262.9,165,264.6l.06.29-.07-.28c-9.5,8.07-17.08,17.87-23.6,28.58-.7,1.15-.44,2.89-.62,4.35,1.06-.82,2.4-1.45,3.13-2.49,4.33-6.14,8.21-12.63,12.83-18.53C166.3,264.26,179,256.59,194,252.58c2.58-.7,5.33-.77,8-1.21,9-1.5,17.1.85,24.6,5.75,1.06.69,2.09,1.45,3.14,2.18-.74.76-.77.87-.83.91a16,16,0,0,1-1.46.81,110.06,110.06,0,0,0-35.58,26c-9.11,9.9-16.93,20.77-22.52,33.07-4.71,10.36-7.77,21.16-6.47,32.7.93,8.29,3.6,15.7,11.15,20.58s23.53,3,22.88,2.54c1.42-.58,2.55-1,3.63-1.49,4.66-2.19,9.52-3.8,13.61-7.29A98.79,98.79,0,0,0,234,344.33c6-9.62,11.51-22.63,13.11-33.59,2.19-15.05,1.07-29.69-6.61-43.28-1-1.72-2-3.41-3.28-5.6,35.15-6.59,70.15-8.88,106-5.85-1.14.88-1.94,1.44-2.69,2.07-4.2,3.52-8.85,6.63-12.48,10.66a200.82,200.82,0,0,0-21.89,28.92h0s-.39.59-1.08,1.67a2.33,2.33,0,0,0-.17.26l-.49.78-.36.57c-.95,1.54-2.19,3.59-3.6,6v-.13l-.74,1.45c-1.83,3.23-3.89,7.07-6,11.37a12,12,0,0,1-.4,1.24c-.68,1.54-1.42,3.05-2.12,4.58-1.64,3.38-3.33,6.91-4.95,10.39l-.24,0a7.71,7.71,0,0,1-1.9,1.1c-4.26,1.79-8.85,3-12.79,5.28-4.16,2.42-7.88,5.81-8.83,11-.23,1.26.5,2.69.78,4.05.82-1.06,2-2,2.39-3.18,2.51-7.63,9.94-12.62,18.32-13.32a147.28,147.28,0,0,0-5.76,14c-.1.32-.17.58-.26.88l-.08.17L273,366.66a5.59,5.59,0,0,1-.29,1c-2.52,5.27-5.23,10.45-7.84,15.68a111,111,0,0,1-23.6,32.26,73,73,0,0,1-36.14,18.28c-10.9,2.18-21.5,1.73-31.62-3.22-7.63-3.73-12.59-9.46-13-18.34a15.94,15.94,0,0,1,.6-3.36l.85.11c.35.94.71,1.87,1,2.82,1.23,3.56,3.31,4.84,7,4.28s7.35-3.8,8-7.26c.77-4.22-1.13-9.59-4-11.29s-8.63-.86-11.55,1.69c-6.64,5.82-7.41,16.23-1.93,24.49s13.85,11.56,23,13.35c12.84,2.51,25.28-.08,37.37-4,15.87-5.21,29.63-14.08,42-25.38,14.32-13.14,24.57-28.72,30.29-47.32,2-6.56,4.37-13,6.64-19.49.21-.58.88-1.36,1.38-1.4,3.87-.29,7.76-.43,12.32-.64-1.81,5.47-3.32,10.62-5.21,15.62s-5.37,9.19-9.45,13c1.48.31,2.89.57,3.73,0,3.11-2.1,6.5-4.06,8.94-6.83,4.73-5.34,6.79-12.08,8-19,.37-2.1,1.13-3.2,3.41-3.64a50.77,50.77,0,0,0,9.32-2.81,18.72,18.72,0,0,0,10-8.92c2.42-4.75-.41-10.6-5.45-11.41-7.75-1.24-16.94,4.31-19.49,11.68-.88,2.54-1.93,5-3,7.49a2.39,2.39,0,0,1-1.55,1.28c-3.59.37-7.19.59-11.27.89.28-1,.55-1.85.81-2.69C303.64,329.5,306,323.23,308.48,316.75Zm65.81-78c1.66-.9,3.35-1.78,5.06-2.57A127.35,127.35,0,0,1,402.78,228a96.4,96.4,0,0,1,21.2-4,2.8,2.8,0,0,1,.69-.13c1.44,0,2.89,0,4.34.09a27.14,27.14,0,0,1,10.83,2.44c3.22.72,4.8,3.62,2.53,5.93a30.71,30.71,0,0,1-5.1,4.15l.26.05c-.77.42-1.56.83-2.36,1.21-.58.32-1.16.63-1.75.91a32,32,0,0,1-5.67,2c-22,7.07-50.95,4.07-58.81,3.07l-3.09-.26C368.68,242,371.46,240.31,374.29,238.76ZM241.4,290.14c0,.5,0,1,0,1.5A88.49,88.49,0,0,1,239.85,308c-.1.86-.2,1.73-.28,2.59a4.83,4.83,0,0,1-.73,2.23q-.37,1.56-.81,3.18a4.43,4.43,0,0,1-.35,2.11c-1,2.93-2.11,5.85-3.26,8.72l0,.06-.11.27c-.38.95-.78,1.92-1.21,2.9a94.82,94.82,0,0,1-4.77,9.64h0c-13.82,25.69-28.72,32.27-37.54,33.71a18.79,18.79,0,0,1-6.4.26c-.39,0-.71-.09-.94-.13A18.83,18.83,0,0,1,177,371.3c-8-4.84-10.55-12-11.15-20.55-1-14.05,3.78-26.42,10.7-38.29a123.68,123.68,0,0,1,27.21-32.6,88.4,88.4,0,0,1,26.73-15.32c1.6-.59,2.57-.38,3.68,1.16C239.41,273,241.36,281.42,241.4,290.14Zm80.65,41.36v-.27l.12-.5c.05-.26.11-.51.18-.76,3-11.31,9.23-12.56,11.25-12.66a8.42,8.42,0,0,1,1.33,0,6.43,6.43,0,0,1,4.43,2.65,4.77,4.77,0,0,1,.48,1.21,4,4,0,0,1,.16.41c0,.1.05.2.07.3.31,1.25.27,3.63-2.4,6.77a7.38,7.38,0,0,1-.8.9c-.12.12-.19.23-.32.36l0,0c-4.49,3.79-14.62,5.05-14.62,5.05A18.3,18.3,0,0,1,322.05,331.5Z"/><path class="cls-17" d="M446.48,349.93c.17-.08.24-.13.39-.21a2.46,2.46,0,0,0,1.32-.48,18.61,18.61,0,0,1,11.68-4.88c3.45-.23,4.1-1.9,3-5.46-7,1.2-13.35,3.62-17.67,9.4l-.24,0s0,.16-.08.38v0C444.76,349.44,444.77,350.73,446.48,349.93Z"/><path class="cls-18" d="M492.83,350.11c-2.45,3.39-4.76,6.87-7.31,10.17-3.1,4-6.76,7.38-11.74,9.09-2,.68-2.89,0-3.24-1.74-.41-2-.54-4.06-.9-6.07-1.08-6,3.73-12.92,9.68-13.8a3.13,3.13,0,0,1,2.24.57c.28.23-.05,1.35-.29,2-.47,1.27-1.07,2.51-1.82,4.23,3.4-.95,5.42-3.93,5.06-6.48s-2.42-4-5.42-3.63c-6.16.82-11.28,3.84-14.09,9.34a40.37,40.37,0,0,1-2.3,3.9,2.19,2.19,0,0,1-.07.66c-.61,2.22-5.66,7.5-6.35,6.89a1.5,1.5,0,0,0-.79-.27,3.94,3.94,0,0,1-.95.08c-1.68-.1-2.07.62-2.28,2-.14,1-.37,2.41-1.07,2.87-4.3,2.82-8.74,5.44-13.16,8.07a6.35,6.35,0,0,1-2.4.7,2,2,0,0,1-1.6-.23c-1.41-.48-1-2.5-.55-3.9,0,0,0,0-.07,0s.11-.17.17-.26c.22-.6.42-1,.42-1l.19.16c.14-.16.28-.3.43-.31,6.92-.68,11.59-5.22,16.22-9.61,2.74-2.59,3.16-7,1.57-9.26s-4.84-2.86-8.91-1.13c-5.25,2.23-8.8,6.3-12.14,10.78a122,122,0,0,1-9.4,10.57c-.9.94-2.69,1.14-3.38,2.15-2.83,4.17-7.09,6.17-11.53,7.71-3.43,1.18-4.83-.34-3.84-3.84a4.73,4.73,0,0,1,.32-.74l-.15,0a28.25,28.25,0,0,1,4.73-10.35,17.71,17.71,0,0,1,2.24-2.78c.57-.61,1-1.07,1.37-1.37l.5-.37,0,0c.69-.55,1.43-1.06,2.19-1.55,1.85-1.13,4-2.13,5.25-1.68a1.07,1.07,0,0,1,.63.54,4.39,4.39,0,0,1-.07,1.92,22.33,22.33,0,0,1-1.08,2.4c-.69,1.21-1.39,2.18-1.39,2.18a1.24,1.24,0,0,0,.21.14l-.06.11a.87.87,0,0,0,.17-.07c.49.22,1.5.4,2.59-1,.23-.31.43-.64.64-1a12.78,12.78,0,0,0,2-3.72,4.22,4.22,0,0,0-2.48-5.7c-2.93-.94-6.19-1-8.51,1a123.5,123.5,0,0,0-10.57,11c-3.17,3.63-5.92,7.6-9,11.27a50.72,50.72,0,0,1-6.69,6.66c-1.37,1.11-3.37,1.43-5.08,2.11.33-1.82.26-3.85,1.06-5.44,2.48-5,5.24-9.81,8-14.64,1-1.75,1.14-3.38-.21-4.89s-3-.85-4.56,0c-6.27,3.38-11,8.46-15.47,13.84-.71.85-1.45,1.68-2.18,2.53l-.64-.46a12.92,12.92,0,0,1,1-2.14c2-2.92,4-5.78,5.95-8.72.41-.62.81-1.75.52-2.17a2.32,2.32,0,0,0-2.16-.71,17.73,17.73,0,0,0-5.28,3.3,49.09,49.09,0,0,0-5.85,7.79c-1.59,2.56-4.16,4.08-5.88,6.69-2.74,4.19-6.95,7.42-10.63,11A10,10,0,0,1,342,396.9l-.55-.55a15.88,15.88,0,0,1,.87-3.09c2.76-5.38,5.56-10.76,8.46-16.07.8-1.48,1.57-3.36-.68-3.23-2.63.17-4.41-1.09-6.59-1.81a7.62,7.62,0,0,0-5.14.24c-.86.41-1.68.91-2.52,1.39a35.3,35.3,0,0,0-9.33,7.75,40.38,40.38,0,0,1-2.63,3.62c-5.59,6.45-11.75,12.41-17.76,18.5a4,4,0,0,1-.83.54c-.64,1-1.59,1.51-2.19,1.16a.91.91,0,0,1-.39-.55l-.06-.06,0-.12a2.85,2.85,0,0,1,.41-1.93,3.37,3.37,0,0,1,.28-.38,2.85,2.85,0,0,1,.12-.31c3.92-6.08,7.93-12.1,11.89-18.15.66-1,1.18-2.14,1.77-3.22a18.56,18.56,0,0,0-4.2-.52c-.84.09-1.65,1-2.4,1.63-1.95,1.59-3.87,3.22-5.8,4.84l-.24.09c-1.36.74-1.12-.21-.9-.75a7.55,7.55,0,0,0,1.19-2.28c.26-1,.25-3-.2-3.2-1.36-.56-3.6-1.13-4.39-.44a20.92,20.92,0,0,0-4.56,6.15c-1.37,2.68.18,4.81,3.22,4.86,1.07,0,2.14-.15,3.64-.28a42.63,42.63,0,0,0-2.09,4.67,47.41,47.41,0,0,0-2.26,8.8c-.3,2.75,1.47,4.15,4.24,3.73a9.38,9.38,0,0,0,4.29-1.78c2.77-2.18,5.37-4.59,7.92-7,1.92-1.83,3.67-3.84,5.9-6.2,0,1.15,0,1.68,0,2.19-.29,2.74-.67,5.68,2.18,7.23,3,1.66,5.26-.55,7.43-2.34a7.37,7.37,0,0,0,.8-.78c1.83-2.06,3.64-4.13,5.74-6.5.07.92.13,1.44.15,2,.2,4.89,3.37,6.62,7.49,3.95a48.5,48.5,0,0,0,4.57-3.66c3.13-2.63,6.24-5.28,9.36-7.92a34.81,34.81,0,0,0-.81,4.5c-.17,1.92.3,4.12,2.45,4.4,1.06.13,2.68-1.29,3.47-2.41,1.71-2.42,3.34-4.9,5-7.37a1.06,1.06,0,0,1,.06-.19c1.24-3.4,6.18-8.66,9.74-12.16a12.24,12.24,0,0,1,3.32-3.17l.29-.27.19-.17-.08.2a11.84,11.84,0,0,1,2.07-1.05c-1.34,2-2.59,3.87-3.77,5.74a24.43,24.43,0,0,0-4.32,13.26c0,4.15,3.12,6.15,6.8,4.26a21.59,21.59,0,0,0,4.32-3c3.36-3,6.61-6.06,9.87-9.07,1.05,7.31,3.95,9.15,11.17,6.39,3.6-1.38,6.89-3.57,10.26-5.49,2.09-1.19,4.05-2.6,6.11-3.85,1.54-.94,2.51-.29,3.37,1.16,2.52,4.24,5.18,5.26,9.79,3.42,2.13-.85,4.2-1.87,6.27-2.9a37.47,37.47,0,0,0,8.95-6.51l0,.18a1.59,1.59,0,0,1,2.11-.11l0-.07s7.8,6.48,14.57,2.4a4.92,4.92,0,0,1,3.86-3.19,10.66,10.66,0,0,0,3.58-1.48,49.84,49.84,0,0,0,17.28-19,10.41,10.41,0,0,0,.65-2.33A2.44,2.44,0,0,0,492.83,350.11Zm-42.24,5.71c-1,5.43-10.06,13.48-15.62,14C437.7,362.23,445.52,355.12,450.59,355.82Zm-148.3,29.84c-.9,1.56-2.21,2.48-2.92,2.07a1.22,1.22,0,0,1-.42-1.08l0,0,0,0a5.22,5.22,0,0,1,.76-2.41c.9-1.55,2.21-2.47,2.92-2.06S303.19,384.11,302.29,385.66Zm30.31,7.6a54.86,54.86,0,0,1-5.16,5.83c-2.46,1.34-2.55-1.23-2.53-2,3.77-11.76,8.51-17,11.91-19.31,1.79-.87,6.52-3,6.7-1.33a2.88,2.88,0,0,1,0,.6,4,4,0,0,1-.55,1.62c-.1.08-.1.1,0,.06C339.55,383.65,336.13,388.5,332.6,393.26Zm132.87-24c-1.69,5.28-7.24-2.25-7.24-2.25l5.33-5.62c.76,2.95,1.37,5.27,2,7.59l-.18.19Z"/></g></g></svg>