<svg xmlns="http://www.w3.org/2000/svg" viewBox="0 0 120 120.51"><defs><style>.cls-1{fill:#fff;}.cls-1,.cls-2,.cls-3{fill-rule:evenodd;}.cls-2{fill:#ced7db;}.cls-3{fill:#54b053;}</style></defs><g id="Capa_2" data-name="Capa 2"><g id="Logotipos"><path class="cls-1" d="M3,117.52l8.06-29.41a56.77,56.77,0,1,1,49.19,28.42h0a56.59,56.59,0,0,1-27.12-6.91Z"/><path class="cls-1" d="M3,119a1.47,1.47,0,0,1-1.06-.44,1.5,1.5,0,0,1-.38-1.44L9.44,88.31A58.27,58.27,0,1,1,32.9,111.22L3.37,119A1.2,1.2,0,0,1,3,119Z"/><path class="cls-2" d="M60.24,3a56.77,56.77,0,1,1,0,113.54h0a56.59,56.59,0,0,1-27.12-6.91L3,117.52l8.06-29.41A56.78,56.78,0,0,1,60.24,3m0-3h0A59.77,59.77,0,0,0,7.84,88.51L.11,116.73A3,3,0,0,0,3,120.51a2.78,2.78,0,0,0,.76-.1l29-7.59A59.77,59.77,0,1,0,60.24,0Z"/><path class="cls-3" d="M93.61,26.41A47.19,47.19,0,0,0,20.26,84.85l1.13,1.78L16.62,104l17.86-4.69,1.72,1a47.18,47.18,0,0,0,24,6.57h0A47.19,47.19,0,0,0,93.61,26.41Z"/><path class="cls-1" d="M46.05,36c-1.06-2.36-2.18-2.41-3.2-2.45-.82,0-1.77,0-2.71,0a5.23,5.23,0,0,0-3.79,1.78,15.9,15.9,0,0,0-5,11.82c0,7,5.08,13.73,5.79,14.67S47,77.53,61.41,83.22c12,4.72,14.42,3.78,17,3.54S86.83,83.34,88,80s1.18-6.15.82-6.74-1.3-1-2.71-1.66-8.4-4.14-9.7-4.61-2.24-.71-3.19.71-3.66,4.61-4.49,5.56-1.66,1.07-3.07.36a39,39,0,0,1-11.41-7,42.69,42.69,0,0,1-7.89-9.83c-.83-1.41-.09-2.18.62-2.89s1.42-1.66,2.13-2.48A9.87,9.87,0,0,0,50.54,49a2.62,2.62,0,0,0-.12-2.48C50.07,45.83,47.31,38.82,46.05,36Z"/></g></g></svg>