<svg xmlns="http://www.w3.org/2000/svg" viewBox="0 0 882.72 285.11"><defs><style>.cls-1{fill:#706442;}</style></defs><g id="Capa_2" data-name="Capa 2"><g id="Textos"><path class="cls-1" d="M103.28,47.39c.3-.6.67-.89,1.11-.89,1.26,0,1.89,1.55,1.89,4.67q0,4.34-3.33,9.12a27.59,27.59,0,0,1-6.34,6.45A23.33,23.33,0,0,1,82.7,71.3a19.39,19.39,0,0,1-9.29-2.17,16.21,16.21,0,0,1-6.61-6.95,24.85,24.85,0,0,1-3-11.79q-.33-16.12,11-31.26,9.78-13,20.8-17.24A24.26,24.26,0,0,1,104.17,0a9.47,9.47,0,0,1,6.45,2.22,19,19,0,0,1,5.9,8.12,11.94,11.94,0,0,1,.55,3.56,14.38,14.38,0,0,1-1.55,6.23q-1.33,2.67-4.45,11c-.45,1.18-1.26,1.41-2.45.66a7.48,7.48,0,0,1-3.34-6.67q0-2.89,2.34-8.62t2.34-8q0-3-2.79-3-4.89,0-12.9,6.12a59.77,59.77,0,0,0-15.13,16.8Q71.81,40.71,71.8,52.84q0,9.45,4.12,12.79a8.12,8.12,0,0,0,5.45,2q5.22,0,11.18-5.39A50.89,50.89,0,0,0,103.28,47.39Z"/><path class="cls-1" d="M147.55,34.15a72.25,72.25,0,0,1,4-6.79c.59-.81,1.14-1.22,1.66-1.22q1.23,0,2,2.55a12.31,12.31,0,0,1,.55,3.44A15.51,15.51,0,0,1,154.11,39q-4,6.66-10.67,19.19a19.54,19.54,0,0,0-2,7.44q0,3.44,2.9,3.33,3.22-.23,7.56-5a50.08,50.08,0,0,0,7-10.38c.66-1.27,1.26-1.3,1.78-.12.74,1.64.4,3.94-1,6.9a21.58,21.58,0,0,1-6.79,8.34q-4.78,3.78-9.23,3.56-9.12-.55-9.12-9.12-6.8,8.68-13.91,8.68a8.11,8.11,0,0,1-6.73-3A12.31,12.31,0,0,1,111.51,61q0-8.13,5.9-16.69,6.33-9.23,13-14,5.67-4.12,10.35-4.12A6.22,6.22,0,0,1,146,28.42,8.11,8.11,0,0,1,147.55,34.15Zm-9.68,17.24q6.57-11.34,6.57-16.68c0-1.71-.6-2.64-1.78-2.79q-2.79-.21-7.9,4.56a56.81,56.81,0,0,0-9.9,12.24q-5.56,8.89-5.56,15.46c0,2.6.85,3.93,2.56,4Q128.09,68.3,137.87,51.39Z"/><path class="cls-1" d="M170.69,27q-5.12,0-7.23-2.89a2.48,2.48,0,0,1-.56-1.34c0-.66.59-1,1.78-.89a53.25,53.25,0,0,0,9.23-.44,157.3,157.3,0,0,1,8.46-13.79,2.11,2.11,0,0,1,1.55-1c.45,0,.82.34,1.12,1a11.19,11.19,0,0,1,.78,4.11,21.1,21.1,0,0,1-2.23,8.45,9.46,9.46,0,0,1,4.73,1.17c1.67.86,2.5,1.95,2.5,3.28,0,.67-.55,1-1.67,1a30.49,30.49,0,0,0-8.67.44q-5.13,8.79-7.46,13.13-4.67,8.34-7.45,14.46a21.89,21.89,0,0,0-2.11,8.78c0,4.16,1.44,6.31,4.34,6.46q3.55.11,8-4.79A46.83,46.83,0,0,0,183.26,53c.37-.74.81-1.11,1.33-1.11s.78.37,1,1.11q.67,2.22-1.05,6.17A23.39,23.39,0,0,1,178.47,67q-5.9,5.24-11.68,5a9.5,9.5,0,0,1-7.11-3.39,12.56,12.56,0,0,1-2.9-8.62,23.37,23.37,0,0,1,2.12-9.24Q162.56,41.94,170.69,27Z"/><path class="cls-1" d="M190.82,51.28a25.93,25.93,0,0,0-1.56,8.4q0,8.73,6.57,9.06,11.44.56,22.13-15.68c.74-1.11,1.37-1.08,1.89.11q1.11,2.44-1.89,6.9a27.56,27.56,0,0,1-9.51,8.56,25.66,25.66,0,0,1-12.29,3.45Q189,72.19,185,67.91a15.56,15.56,0,0,1-4-11.07,28.08,28.08,0,0,1,3.34-12.79A41.57,41.57,0,0,1,194.6,30.7q5.57-4.44,10.35-4.45a6.74,6.74,0,0,1,3.56.89,21.66,21.66,0,0,1,6.56,5.79,6.18,6.18,0,0,1,1,3.78c0,3.85-1.52,7.64-4.56,11.34q-5.56,6.8-11.9,6.79A13.83,13.83,0,0,1,190.82,51.28Zm1-2.45a6.89,6.89,0,0,0,3.78,1.23q4.35,0,9.46-6.79Q210,36.82,210,32.93c0-1.12-.48-1.67-1.44-1.67-1.86,0-4.34,1.44-7.46,4.34a38.72,38.72,0,0,0-8.34,11.34C192.49,47.39,192.19,48,191.82,48.83Z"/><path class="cls-1" d="M234.65,35.15q5-.66,11.45-5.12c1.34-.89,2.34-1,3-.22a10.69,10.69,0,0,1,3,7,5.73,5.73,0,0,1-1.45,3.89q-10.11,11.46-12.23,18.47a16.42,16.42,0,0,0-.78,4.78c0,3.56,1.18,5.38,3.56,5.45q3.1.12,6.9-4.23a46.31,46.31,0,0,0,6.34-10.45c.51-1.19,1-1.23,1.55-.11.82,1.7.63,4-.55,6.89a18,18,0,0,1-6.18,8,13.35,13.35,0,0,1-8.73,2.94,9.42,9.42,0,0,1-6.95-3.06,10.57,10.57,0,0,1-2.5-7.28q0-9.57,14.35-26a23.57,23.57,0,0,1-13,4.23l-9.34,16Q216.74,67.74,215.4,74c-.29,1.34-.92,1.52-1.89.56a8.83,8.83,0,0,1-2.45-6.34,17,17,0,0,1,2.17-7.73q2.18-4.17,14.19-21.31A4.52,4.52,0,0,1,225.3,35q0-3.9,3.56-8.68c2.37-3,4.38-4.48,6-4.56,1.48-.07,2.22,1,2.22,3.34Q237.09,28.92,234.65,35.15Z"/><path class="cls-1" d="M260.56,72q-8.79,0-8.79-9a23.13,23.13,0,0,1,1.34-7.23,104.36,104.36,0,0,1,6.56-14.35,122.51,122.51,0,0,1,7.68-12.68c.59-.82,1.15-1.22,1.67-1.22.81,0,1.48.81,2,2.44a11.13,11.13,0,0,1,.55,3.32,16.13,16.13,0,0,1-1.66,6.88q-3.57,6.21-9.35,18a19.85,19.85,0,0,0-1.78,7.1c0,2.37,1,3.52,2.89,3.44q3.57-.21,7.9-4.86a38.65,38.65,0,0,0,6.57-10.27c.59-1.11,1.18-1.11,1.78,0q1.32,2.56-.78,6.9A21.07,21.07,0,0,1,270,68.74,16.54,16.54,0,0,1,260.56,72Zm18.13-52.73a7.15,7.15,0,0,1,.78,3.23q0,5.12-3.78,5.12a4.6,4.6,0,0,1-4-2.56,7.52,7.52,0,0,1-1.12-3.9,7,7,0,0,1,1-3.5,3,3,0,0,1,2.67-1.72Q277,15.91,278.69,19.24Z"/><path class="cls-1" d="M293.15,37.6a54.8,54.8,0,0,1,8.68-7.68c3.34-2.37,5.86-3.45,7.56-3.22a5.79,5.79,0,0,1,3.73,2.51,8.31,8.31,0,0,1,1.61,5.07,9.82,9.82,0,0,1-1,4.24q-3.9,6.58-10.34,19a17.74,17.74,0,0,0-1.78,7c0,3.13,1.18,4.61,3.56,4.47q6-.34,14.23-15.47c.6-1.11,1.23-1.15,1.89-.11q1.33,2.11-1,7a22.58,22.58,0,0,1-6.89,8.29c-3.27,2.45-6.45,3.67-9.57,3.67q-9.9,0-9.9-9.12a22.57,22.57,0,0,1,1.45-7.45q1.77-5.44,7.12-14.35,4.56-7.68,4.56-8.68c0-.29-.08-.48-.23-.55-.74-.3-2.44.41-5.11,2.11a50.94,50.94,0,0,0-9.57,8.34q-6.67,7.23-16.24,28.26c-.52,1.18-1.22,1.33-2.11.44a7.82,7.82,0,0,1-2.12-5.78,19.54,19.54,0,0,1,1-5.68q1.67-5.12,7.11-15.12A203.63,203.63,0,0,1,290.48,27q1.23-1.79,2.34,0A9.89,9.89,0,0,1,294,32,19.44,19.44,0,0,1,293.15,37.6Z"/><path class="cls-1" d="M364.23,60.29q-5.57,8.79-21.58,14.57-13.25,32.27-23,36.15a5.61,5.61,0,0,1-2.11.45c-1.63,0-3.07-.93-4.34-2.78a15.11,15.11,0,0,1-3.11-8.57,17.34,17.34,0,0,1,.89-5.23q4.33-13.57,23.8-21c.74-1.71,1.82-4.26,3.23-7.68q-5.57,5.56-11.24,5.57a8,8,0,0,1-6.61-3,12.05,12.05,0,0,1-2.4-7.84q0-8,5.79-16.47A54.17,54.17,0,0,1,336.31,30.7q5.79-4.11,10.57-4.12a6,6,0,0,1,4.95,2.12,7.57,7.57,0,0,1,1.61,5.23l3.67-6c.52-.88,1.08-1.32,1.67-1.32.89,0,1.59.82,2.11,2.45a12.57,12.57,0,0,1,.56,3.55,15.41,15.41,0,0,1-1.78,6.88q-5.12,10-15,30.84a56,56,0,0,0,19.91-16.68,1.5,1.5,0,0,1,1.12-.67c.37.07.63.37.78.89Q366.9,56.06,364.23,60.29ZM332.86,78.42a38.08,38.08,0,0,0-13.57,13.24q-4.23,6.68-4.23,11.45c0,1.26.27,1.9.78,1.9q2,0,6.9-7.46A114.58,114.58,0,0,0,332.86,78.42Zm10.9-26.75q6.57-11.37,6.57-16.73c0-1.71-.6-2.61-1.78-2.68q-2.67-.23-8,4.69a59.79,59.79,0,0,0-9.73,11.93q-5.44,8.71-5.45,15.29c0,2.75.89,4.17,2.67,4.24Q334.08,68.52,343.76,51.67Z"/><path class="cls-1" d="M433.3,60.29q-5.57,8.79-21.58,14.57-13.23,32.27-23,36.15a5.65,5.65,0,0,1-2.11.45q-2.44,0-4.34-2.78a15.05,15.05,0,0,1-3.12-8.57,17.34,17.34,0,0,1,.89-5.23q4.34-13.57,23.81-21c.74-1.71,1.81-4.26,3.22-7.68q-5.57,5.56-11.23,5.57a8.06,8.06,0,0,1-6.62-3A12,12,0,0,1,386.81,61q0-8,5.78-16.47A54.17,54.17,0,0,1,405.38,30.7q5.79-4.11,10.57-4.12a6,6,0,0,1,4.95,2.12,7.52,7.52,0,0,1,1.61,5.23l3.68-6c.51-.88,1.07-1.32,1.66-1.32.89,0,1.6.82,2.12,2.45a12.54,12.54,0,0,1,.55,3.55,15.28,15.28,0,0,1-1.78,6.88q-5.12,10-15,30.84a56.07,56.07,0,0,0,19.91-16.68,1.5,1.5,0,0,1,1.11-.67c.37.07.63.37.78.89Q436,56.06,433.3,60.29ZM401.94,78.42a37.92,37.92,0,0,0-13.57,13.24q-4.23,6.68-4.23,11.45c0,1.26.26,1.9.78,1.9q2,0,6.89-7.46A114.58,114.58,0,0,0,401.94,78.42Zm10.9-26.75q6.56-11.37,6.56-16.73c0-1.71-.59-2.61-1.78-2.68Q414.95,32,409.67,37a59.82,59.82,0,0,0-9.74,11.93q-5.44,8.71-5.45,15.29c0,2.75.89,4.17,2.67,4.24Q403.17,68.52,412.84,51.67Z"/><path class="cls-1" d="M469.68,46.38a4.66,4.66,0,0,1-3,1.45,42.87,42.87,0,0,1-6.56,14.24q-5.12,7.23-11,9.23a11.17,11.17,0,0,1-3.78.67q-6,0-10.24-5.56a15.23,15.23,0,0,1-2.89-9.35q0-7.23,4.67-15.68a35.74,35.74,0,0,1,7.9-9.9q5-4.23,9.79-4.56a8.23,8.23,0,0,1,7.56,3.78l3.78,4.45c1.26,1.85,1.75,4.45,1.45,7.79a23,23,0,0,1-.22,2.56,7.19,7.19,0,0,0,1.05-.12,8.74,8.74,0,0,1,1.17-.11C470.16,45.27,470.27,45.64,469.68,46.38Zm-10.35,0a7.8,7.8,0,0,1-2.11-1.33,12.22,12.22,0,0,1-5.12-9.79,37.41,37.41,0,0,0-8.56,10.46q-4.91,8.79-4.9,16.35c0,3.71,1.23,5.56,3.67,5.56q6.57,0,13.13-12.35A63.16,63.16,0,0,0,459.33,46.38Zm.78-3a22,22,0,0,0,.89-8.23q-.33-2.34-1.56-2.34c-1.26,0-1.89,1.38-1.89,4.12A8.5,8.5,0,0,0,460.11,43.38Z"/><path class="cls-1" d="M490.36,61.29q-8.22,11-16,10.46-7-.45-7-8.57a24.61,24.61,0,0,1,1.33-7.56Q473,42.72,484,27.25c.89-1.26,1.86-1.29,2.9-.11a9,9,0,0,1,1.44,5q0,4.34-3.56,10a119.53,119.53,0,0,0-8.67,16.35,16.71,16.71,0,0,0-1.56,6.34c0,2.08.7,3.19,2.11,3.34q5.56.44,16.47-17.18,3.44-5.57,8.23-14.39a97.92,97.92,0,0,1,5.56-9.48c.67-.89,1.22-1.33,1.67-1.33.89,0,1.59.86,2.11,2.57a13.64,13.64,0,0,1,.56,3.58,16.58,16.58,0,0,1-1.67,7q-4,6.7-10.57,19.12a17.64,17.64,0,0,0-1.89,7c0,2.69,1.15,4,3.45,3.81q6.33-.34,14.68-15.46c.3-.52.63-.78,1-.78s.78.14,1,.66c.82,1.78.48,4.12-1,7a23.51,23.51,0,0,1-7.17,8.4,16,16,0,0,1-9.51,3.5q-9.35,0-9.35-8.78C490.25,62.77,490.29,62,490.36,61.29Z"/><path class="cls-1" d="M532,35.15q5-.66,11.46-5.12c1.34-.89,2.34-1,3-.22a10.69,10.69,0,0,1,3,7A5.73,5.73,0,0,1,548,40.71q-10.12,11.46-12.23,18.47A16.42,16.42,0,0,0,535,64c0,3.56,1.18,5.38,3.56,5.45q3.11.12,6.89-4.23a45.59,45.59,0,0,0,6.34-10.45c.52-1.19,1-1.23,1.56-.11.82,1.7.63,4-.55,6.89a18.06,18.06,0,0,1-6.18,8,13.35,13.35,0,0,1-8.73,2.94,9.42,9.42,0,0,1-7-3.06,10.57,10.57,0,0,1-2.5-7.28q0-9.57,14.34-26a23.54,23.54,0,0,1-13,4.23l-9.34,16Q514.05,67.74,512.72,74c-.29,1.34-.93,1.52-1.89.56a8.83,8.83,0,0,1-2.45-6.34,17,17,0,0,1,2.17-7.73q2.18-4.17,14.18-21.31A4.54,4.54,0,0,1,522.62,35q0-3.9,3.56-8.68c2.37-3,4.38-4.48,6-4.56,1.48-.07,2.22,1,2.22,3.34Q534.41,28.92,532,35.15Z"/><path class="cls-1" d="M567.78,38.71a54.14,54.14,0,0,1,9.12-8.4q5.24-3.84,8.12-3.73a4.25,4.25,0,0,1,3.45,2.34,10,10,0,0,1,1.34,5.23,12,12,0,0,1-.45,3.34,55,55,0,0,1,8.9-7.12c3.26-2.23,5.78-3.3,7.56-3.23q3.9.12,3.9,6.25a15.64,15.64,0,0,1-1.17,5.91,69.53,69.53,0,0,1-4.84,8.92q-4.23,6.81-5.45,9.15a14.11,14.11,0,0,0-1.67,6.24q0,5.25,4.12,5.13,5.44-.1,13.9-15.35c.67-1.11,1.34-1.18,2-.22a5.14,5.14,0,0,1,.23,2.89,13.73,13.73,0,0,1-1.23,4.12,22.32,22.32,0,0,1-7.12,8.4,16.17,16.17,0,0,1-9.56,3.5c-3.41,0-6.07-.89-8-2.67a9.18,9.18,0,0,1-2.83-7,17.62,17.62,0,0,1,1.67-7.12,118.57,118.57,0,0,1,7.67-13.34q4.89-7.57,4.9-8.57a.35.35,0,0,0-.23-.33q-2.77-1-11.9,8.12Q580,51.39,570.9,71.52c-.38.82-.82,1.23-1.34,1.23a1.61,1.61,0,0,1-1.22-.67c-1.41-1.19-2.12-3.11-2.12-5.78a22.44,22.44,0,0,1,1.89-8.24q1.68-4.34,8.12-14.57,5.57-8.9,5.57-10.34a.47.47,0,0,0-.23-.45c-.81-.29-2.41.38-4.78,2A55.16,55.16,0,0,0,567.67,43q-8.24,9.07-16.35,28.08a1.85,1.85,0,0,1-.78,1c-.37.15-.82,0-1.33-.45A7.19,7.19,0,0,1,547,66a19.37,19.37,0,0,1,1.11-6,116.78,116.78,0,0,1,7.07-15.56,199.28,199.28,0,0,1,10.4-17.92q1.22-1.87,2.33,0a9.74,9.74,0,0,1,1.34,5.22A19.38,19.38,0,0,1,567.78,38.71Z"/><path class="cls-1" d="M623.29,51.28a25.93,25.93,0,0,0-1.56,8.4q0,8.73,6.56,9.06,11.46.56,22.14-15.68c.74-1.11,1.37-1.08,1.89.11q1.11,2.44-1.89,6.9a27.74,27.74,0,0,1-9.51,8.56,25.7,25.7,0,0,1-12.3,3.45q-7.11.11-11.12-4.17a15.55,15.55,0,0,1-4-11.07,28.19,28.19,0,0,1,3.33-12.79A41.45,41.45,0,0,1,627.07,30.7q5.55-4.44,10.34-4.45a6.69,6.69,0,0,1,3.56.89,21.7,21.7,0,0,1,6.57,5.79,6.25,6.25,0,0,1,1,3.78c0,3.85-1.52,7.64-4.56,11.34q-5.57,6.8-11.91,6.79A13.82,13.82,0,0,1,623.29,51.28Zm1-2.45a6.89,6.89,0,0,0,3.78,1.23q4.33,0,9.45-6.79,4.9-6.45,4.9-10.34c0-1.12-.48-1.67-1.45-1.67-1.85,0-4.34,1.44-7.45,4.34a38.72,38.72,0,0,0-8.34,11.34C625,47.39,624.66,48,624.29,48.83Z"/><path class="cls-1" d="M662.55,27q-5.12,0-7.23-2.89a2.48,2.48,0,0,1-.56-1.34c0-.66.6-1,1.78-.89a53.39,53.39,0,0,0,9.24-.44,157.91,157.91,0,0,1,8.45-13.79,2.11,2.11,0,0,1,1.56-1c.44,0,.81.34,1.11,1a11.19,11.19,0,0,1,.78,4.11,20.93,20.93,0,0,1-2.23,8.45,9.44,9.44,0,0,1,4.73,1.17c1.67.86,2.5,1.95,2.5,3.28,0,.67-.55,1-1.66,1a30.55,30.55,0,0,0-8.68.44q-5.12,8.79-7.45,13.13-4.68,8.34-7.46,14.46a21.89,21.89,0,0,0-2.11,8.78q0,6.24,4.34,6.46,3.55.11,8-4.79A46.82,46.82,0,0,0,675.12,53c.37-.74.82-1.11,1.34-1.11s.77.37,1,1.11q.66,2.22-1.06,6.17A23.48,23.48,0,0,1,670.34,67q-5.9,5.24-11.68,5a9.52,9.52,0,0,1-7.12-3.39A12.55,12.55,0,0,1,648.65,60a23.35,23.35,0,0,1,2.11-9.24Q654.44,41.94,662.55,27Z"/><path class="cls-1" d="M714.05,69.19A14.34,14.34,0,0,1,706,72a8.11,8.11,0,0,1-6.73-3,12.36,12.36,0,0,1-2.39-7.9q0-8.12,5.89-16.69a53.06,53.06,0,0,1,12.91-13.79q5.78-4.11,10.45-4.12a6.16,6.16,0,0,1,5.23,2.34A8.12,8.12,0,0,1,733,34.48a37.35,37.35,0,0,1,4.78-7.22,2.17,2.17,0,0,1,1.34-.79c.44,0,.92.38,1.44,1.12a9.11,9.11,0,0,1,.78,3.9q0,4.56-3.22,10.36-10.25,18.27-13.69,24.73Q714.94,84.52,709.27,98c-.52,1.26-1.19,1.41-2,.44a7.52,7.52,0,0,1-1.89-5,19.79,19.79,0,0,1,.89-5.23A126.41,126.41,0,0,1,714.05,69.19Zm9.23-17.52q6.57-11.49,6.56-16.73c0-1.79-.59-2.72-1.78-2.79q-2.77-.22-7.89,4.57a58,58,0,0,0-9.9,12.16q-5.57,8.92-5.56,15.62c0,2.76.85,4.13,2.55,4.13Q713.61,68.63,723.28,51.67Z"/><path class="cls-1" d="M760.21,61.29q-8.24,11-16,10.46-7-.45-7-8.57a24.61,24.61,0,0,1,1.33-7.56q4.34-12.9,15.35-28.37c.89-1.26,1.85-1.29,2.89-.11a9,9,0,0,1,1.45,5q0,4.34-3.56,10A120.73,120.73,0,0,0,746,58.51a16.67,16.67,0,0,0-1.55,6.34c0,2.08.7,3.19,2.11,3.34Q752.1,68.63,763,51q3.45-5.57,8.23-14.39a100.11,100.11,0,0,1,5.56-9.48c.67-.89,1.23-1.33,1.67-1.33.89,0,1.6.86,2.12,2.57a13.59,13.59,0,0,1,.55,3.58,16.44,16.44,0,0,1-1.67,7q-4,6.7-10.56,19.12a17.47,17.47,0,0,0-1.89,7c0,2.69,1.15,4,3.44,3.81q6.34-.34,14.69-15.46c.29-.52.63-.78,1-.78s.78.14,1,.66q1.22,2.67-1,7A23.54,23.54,0,0,1,779,68.8a15.92,15.92,0,0,1-9.51,3.5q-9.35,0-9.34-8.78C760.1,62.77,760.14,62,760.21,61.29Z"/><path class="cls-1" d="M793.58,51.28a25.93,25.93,0,0,0-1.56,8.4q0,8.73,6.57,9.06,11.45.56,22.13-15.68c.74-1.11,1.37-1.08,1.89.11q1.11,2.44-1.89,6.9a27.56,27.56,0,0,1-9.51,8.56,25.66,25.66,0,0,1-12.29,3.45q-7.12.11-11.12-4.17a15.56,15.56,0,0,1-4-11.07,28.08,28.08,0,0,1,3.34-12.79A41.57,41.57,0,0,1,797.36,30.7q5.57-4.44,10.35-4.45a6.74,6.74,0,0,1,3.56.89,21.66,21.66,0,0,1,6.56,5.79,6.18,6.18,0,0,1,1,3.78c0,3.85-1.52,7.64-4.56,11.34q-5.57,6.8-11.9,6.79A13.83,13.83,0,0,1,793.58,51.28Zm1-2.45a6.89,6.89,0,0,0,3.78,1.23q4.35,0,9.46-6.79,4.89-6.45,4.89-10.34c0-1.12-.48-1.67-1.44-1.67-1.86,0-4.34,1.44-7.46,4.34a38.72,38.72,0,0,0-8.34,11.34C795.25,47.39,795,48,794.58,48.83Z"/><path class="cls-1" d="M27.25,133.76a15.22,15.22,0,0,1,6.12,6.12,6.43,6.43,0,0,1,.67,2.89,17,17,0,0,1-1.89,6.56q-3,6.79-3.12,7.12a1.44,1.44,0,0,1-2.33.89q-3.35-1.67-3.34-6a11.54,11.54,0,0,1,.67-3.67c.29-.89,1-2.56,2.11-5a11.93,11.93,0,0,0,1.33-4q0-1.23-1.11-1.23c-1.48,0-3.71,1.52-6.67,4.56a46.29,46.29,0,0,0-7.9,11.35q-3.55,7.23-3.56,13.13,0,8.67,6.34,8.78,11.57.12,21.91-15.79a1.23,1.23,0,0,1,1-.67,1.09,1.09,0,0,1,1,.78c.59,1.48-.08,3.71-2,6.67a26.56,26.56,0,0,1-9.23,8.51A24.93,24.93,0,0,1,15,178.37q-7.12.1-11.07-4.12a15.5,15.5,0,0,1-3.95-11,28.53,28.53,0,0,1,3.34-12.79,39.16,39.16,0,0,1,10.12-13.13q5.45-4.44,10.23-4.45A7.07,7.07,0,0,1,27.25,133.76Z"/><path class="cls-1" d="M72.41,152.78a4.61,4.61,0,0,1-3,1.45,42.87,42.87,0,0,1-6.56,14.24q-5.13,7.23-11,9.23a11.17,11.17,0,0,1-3.78.67q-6,0-10.23-5.56a15.23,15.23,0,0,1-2.89-9.35q0-7.23,4.67-15.68a35.09,35.09,0,0,1,7.9-9.9c3.33-2.82,6.6-4.34,9.78-4.56a8.22,8.22,0,0,1,7.57,3.78l3.78,4.45c1.26,1.85,1.74,4.45,1.45,7.78a23.46,23.46,0,0,1-.23,2.56,6.82,6.82,0,0,0,1.06-.11,8.6,8.6,0,0,1,1.17-.11Q73.3,151.67,72.41,152.78Zm-10.34,0A7.82,7.82,0,0,1,60,151.45a12.25,12.25,0,0,1-5.11-9.79,37.61,37.61,0,0,0-8.57,10.46q-4.89,8.77-4.89,16.35,0,5.57,3.67,5.56,6.56,0,13.12-12.35A64.46,64.46,0,0,0,62.07,152.78Zm.78-3a22.27,22.27,0,0,0,.89-8.23q-.35-2.34-1.56-2.34c-1.26,0-1.89,1.38-1.89,4.12A8.5,8.5,0,0,0,62.85,149.78Z"/><path class="cls-1" d="M88.87,145.11a54.14,54.14,0,0,1,9.12-8.4q5.24-3.84,8.12-3.73a4.25,4.25,0,0,1,3.45,2.34,10,10,0,0,1,1.34,5.23,11.91,11.91,0,0,1-.45,3.33,55.36,55.36,0,0,1,8.9-7.11c3.26-2.23,5.79-3.3,7.57-3.23,2.59.07,3.89,2.16,3.89,6.25a15.72,15.72,0,0,1-1.17,5.91,70.21,70.21,0,0,1-4.84,8.92q-4.23,6.8-5.45,9.14a14.18,14.18,0,0,0-1.67,6.25q0,5.25,4.12,5.13,5.45-.1,13.9-15.35c.67-1.11,1.34-1.18,2-.22a5.16,5.16,0,0,1,.22,2.89,13.18,13.18,0,0,1-1.23,4.12,22.19,22.19,0,0,1-7.11,8.39,16.12,16.12,0,0,1-9.57,3.51q-5.11,0-8-2.67a9.16,9.16,0,0,1-2.84-7,17.75,17.75,0,0,1,1.67-7.12,119.39,119.39,0,0,1,7.67-13.35q4.91-7.56,4.9-8.56a.36.36,0,0,0-.22-.33q-2.79-1-11.91,8.12Q101.11,157.79,92,177.92c-.37.82-.82,1.23-1.34,1.23a1.61,1.61,0,0,1-1.22-.67q-2.12-1.78-2.11-5.79a22.44,22.44,0,0,1,1.89-8.23q1.67-4.34,8.12-14.57,5.55-8.89,5.56-10.34a.47.47,0,0,0-.22-.45c-.82-.29-2.41.38-4.79,2a54.72,54.72,0,0,0-9.12,8.27q-8.24,9.06-16.35,28.08a1.89,1.89,0,0,1-.78,1c-.37.15-.81,0-1.33-.45a7.19,7.19,0,0,1-2.23-5.62,19.12,19.12,0,0,1,1.12-5.95,115.86,115.86,0,0,1,7.06-15.56A200.28,200.28,0,0,1,86.65,133q1.21-1.89,2.33,0a9.74,9.74,0,0,1,1.34,5.22A19.17,19.17,0,0,1,88.87,145.11Z"/><path class="cls-1" d="M169,159.9q-8.11,18-18.58,18-8.44,0-11.67-7.9c-.75,1.68-1.82,4.2-3.23,7.56-.52,1.19-1.11,1.31-1.78.34a9.4,9.4,0,0,1-1.78-5.69,22.09,22.09,0,0,1,1.22-6.58q2.24-7,14.52-30.12t18-31.13c.52-.74,1-1.12,1.45-1.12.74,0,1.33.78,1.78,2.34a11,11,0,0,1,.56,3.23q0,4.89-3.9,12.12-3.22,5.34-9.9,16.91,5.23-4.68,9.57-4.67,7.78,0,7.79,10.34Q173,150.9,169,159.9Zm-5.45-22.13q-3.56-.35-8.12,4.45-6.78,7-14.46,23,.56,7.57,5.9,7.57,6.43,0,14.23-15.47,4.56-9.12,4.56-15Q165.62,138,163.51,137.77Z"/><path class="cls-1" d="M181,178.37q-8.79,0-8.78-9a23.1,23.1,0,0,1,1.33-7.23,105.58,105.58,0,0,1,6.56-14.35,124.3,124.3,0,0,1,7.68-12.68c.59-.82,1.15-1.23,1.67-1.23.81,0,1.48.82,2,2.44a11.27,11.27,0,0,1,.56,3.33,16.18,16.18,0,0,1-1.67,6.88q-3.57,6.21-9.35,18a19.85,19.85,0,0,0-1.78,7.1c0,2.37,1,3.51,2.9,3.44q3.56-.22,7.89-4.86a38.65,38.65,0,0,0,6.57-10.27c.59-1.11,1.18-1.11,1.78,0q1.33,2.57-.78,6.9a21,21,0,0,1-7.12,8.34A16.54,16.54,0,0,1,181,178.37Zm18.13-52.73a7.15,7.15,0,0,1,.78,3.23q0,5.12-3.78,5.11a4.59,4.59,0,0,1-4-2.55,7.52,7.52,0,0,1-1.12-3.9,6.9,6.9,0,0,1,1-3.5,3,3,0,0,1,2.67-1.72Q197.44,122.31,199.1,125.64Z"/><path class="cls-1" d="M213.56,144a54.8,54.8,0,0,1,8.68-7.68q5-3.56,7.56-3.23a5.81,5.81,0,0,1,3.73,2.51,8.34,8.34,0,0,1,1.61,5.08,9.82,9.82,0,0,1-1,4.24q-3.88,6.57-10.34,19a17.7,17.7,0,0,0-1.78,7c0,3.13,1.18,4.61,3.56,4.46q6-.33,14.24-15.46c.59-1.11,1.22-1.15,1.89-.11.89,1.41.55,3.73-1,7a22.7,22.7,0,0,1-6.9,8.29c-3.27,2.45-6.45,3.67-9.57,3.67q-9.9,0-9.9-9.12a22.52,22.52,0,0,1,1.45-7.45q1.77-5.46,7.12-14.35,4.56-7.68,4.56-8.68c0-.29-.08-.48-.22-.55-.75-.3-2.45.4-5.12,2.11a50.94,50.94,0,0,0-9.57,8.34q-6.67,7.23-16.24,28.25c-.52,1.19-1.22,1.34-2.11.45a7.81,7.81,0,0,1-2.11-5.78,19.44,19.44,0,0,1,1-5.68q1.67-5.12,7.12-15.13a202.42,202.42,0,0,1,10.67-17.68q1.23-1.78,2.34,0a9.78,9.78,0,0,1,1.22,5A19.5,19.5,0,0,1,213.56,144Z"/><path class="cls-1" d="M274.41,140.55a72.61,72.61,0,0,1,4-6.79c.59-.81,1.15-1.22,1.67-1.22.82,0,1.48.85,2,2.55a12.29,12.29,0,0,1,.56,3.44,15.68,15.68,0,0,1-1.67,6.88q-4,6.66-10.68,19.19a19.63,19.63,0,0,0-2,7.44q0,3.44,2.89,3.32,3.22-.21,7.57-5a49.88,49.88,0,0,0,7-10.39c.67-1.26,1.26-1.29,1.78-.11q1.11,2.44-1,6.9a21.54,21.54,0,0,1-6.78,8.34q-4.78,3.78-9.24,3.56-9.12-.55-9.12-9.12-6.78,8.67-13.9,8.68a8.12,8.12,0,0,1-6.73-3,12.26,12.26,0,0,1-2.39-7.9q0-8.11,5.89-16.68,6.35-9.22,13-14,5.67-4.11,10.34-4.11a6.24,6.24,0,0,1,5.23,2.28A8.11,8.11,0,0,1,274.41,140.55Zm-9.68,17.24q6.56-11.34,6.56-16.69c0-1.7-.59-2.63-1.78-2.78-1.85-.15-4.48,1.38-7.89,4.56a56.81,56.81,0,0,0-9.9,12.24q-5.57,8.9-5.57,15.46c0,2.6.86,3.93,2.56,4Q254.94,174.7,264.73,157.79Z"/><path class="cls-1" d="M335.59,133.76a15.13,15.13,0,0,1,6.11,6.12,6.3,6.3,0,0,1,.67,2.89,17,17,0,0,1-1.89,6.56q-3,6.79-3.11,7.12a1.45,1.45,0,0,1-2.34.89q-3.34-1.67-3.34-6a11.54,11.54,0,0,1,.67-3.67c.29-.89,1-2.56,2.11-5a12,12,0,0,0,1.34-4q0-1.23-1.11-1.23c-1.49,0-3.71,1.52-6.68,4.56a46.56,46.56,0,0,0-7.9,11.35q-3.56,7.23-3.56,13.13,0,8.67,6.34,8.78,11.58.12,21.92-15.79a1.22,1.22,0,0,1,1-.67,1.08,1.08,0,0,1,1,.78c.59,1.48-.07,3.71-2,6.67a26.65,26.65,0,0,1-9.23,8.51,25,25,0,0,1-12.24,3.62q-7.12.1-11.07-4.12a15.5,15.5,0,0,1-3.95-11,28.66,28.66,0,0,1,3.34-12.79,39.29,39.29,0,0,1,10.12-13.13q5.44-4.44,10.24-4.45A7.1,7.1,0,0,1,335.59,133.76Z"/><path class="cls-1" d="M378.74,140.55a72.25,72.25,0,0,1,4-6.79c.59-.81,1.15-1.22,1.67-1.22.81,0,1.48.85,2,2.55a12.25,12.25,0,0,1,.55,3.44,15.66,15.66,0,0,1-1.66,6.88q-4,6.66-10.68,19.19a19.44,19.44,0,0,0-2,7.44q0,3.44,2.89,3.32,3.23-.21,7.56-5a49.9,49.9,0,0,0,7-10.39c.67-1.26,1.26-1.29,1.78-.11q1.11,2.44-1,6.9a21.66,21.66,0,0,1-6.79,8.34q-4.79,3.78-9.23,3.56-9.12-.55-9.12-9.12-6.8,8.67-13.91,8.68a8.13,8.13,0,0,1-6.73-3,12.32,12.32,0,0,1-2.39-7.9q0-8.11,5.9-16.68,6.34-9.22,13-14c3.79-2.74,7.23-4.11,10.35-4.11a6.24,6.24,0,0,1,5.23,2.28A8.16,8.16,0,0,1,378.74,140.55Zm-9.67,17.24q6.56-11.34,6.56-16.69c0-1.7-.6-2.63-1.78-2.78-1.86-.15-4.49,1.38-7.9,4.56a57.41,57.41,0,0,0-9.9,12.24q-5.57,8.9-5.56,15.46c0,2.6.85,3.93,2.56,4Q359.28,174.7,369.07,157.79Z"/><path class="cls-1" d="M398.88,154.45Q395,164,395,169.69q0,5,3.23,5.34,3.89.33,9.12-4.67a44.38,44.38,0,0,0,8.34-11.46c.37-.74.82-1.11,1.34-1.11s.89.37,1.11,1.11q.78,2.79-1.11,6.9-1.67,3.55-6.57,7.56-6.1,4.9-12,4.79-10-.22-10-11.13a30.35,30.35,0,0,1,.78-6.45,99.47,99.47,0,0,1,11.34-28.48,119.13,119.13,0,0,1,16.8-22.8,4,4,0,0,1,2.67-1.45,3.14,3.14,0,0,1,2.11.89,9.69,9.69,0,0,1,3.23,7.57,18.37,18.37,0,0,1-.67,4.67q-2.44,9.57-10.45,19.47A67.85,67.85,0,0,1,398.88,154.45Zm2-4.78a63.25,63.25,0,0,0,15.24-18q5-8.57,5-12.35c0-.37-.07-.59-.22-.67q-1.11-.66-6.28,7.07t-11.07,18.63A57,57,0,0,0,400.88,149.67Z"/><path class="cls-1" d="M421.23,178.37q-8.78,0-8.78-9a23.1,23.1,0,0,1,1.33-7.23,105.58,105.58,0,0,1,6.56-14.35A124.3,124.3,0,0,1,428,135.1c.59-.82,1.15-1.23,1.67-1.23.81,0,1.48.82,2,2.44a11.27,11.27,0,0,1,.56,3.33,16.18,16.18,0,0,1-1.67,6.88q-3.57,6.21-9.35,18a19.85,19.85,0,0,0-1.78,7.1c0,2.37,1,3.51,2.9,3.44q3.56-.22,7.89-4.86a38.65,38.65,0,0,0,6.57-10.27c.59-1.11,1.18-1.11,1.78,0q1.34,2.57-.78,6.9a21,21,0,0,1-7.12,8.34A16.54,16.54,0,0,1,421.23,178.37Zm18.14-52.73a7.27,7.27,0,0,1,.77,3.23q0,5.12-3.78,5.11a4.6,4.6,0,0,1-4-2.55,7.6,7.6,0,0,1-1.11-3.9,6.88,6.88,0,0,1,1-3.5,3,3,0,0,1,2.67-1.72Q437.69,122.31,439.37,125.64Z"/><path class="cls-1" d="M466.73,164.69q-2.24,4.77-2.23,7.67,0,3.22,2.9,3.12,3.21-.22,7.45-4.9a50.62,50.62,0,0,0,7-10.46c.66-1.26,1.26-1.29,1.78-.11q1.22,2.56-.89,6.9a23.25,23.25,0,0,1-6.79,8.23q-4.79,3.68-9.23,3.45-9-.45-9-8.9-6.9,8.56-13.8,8.57a8,8,0,0,1-6.67-3,12.48,12.48,0,0,1-2.34-7.9q0-8,5.79-16.57A54,54,0,0,1,453.49,137q5.79-4.11,10.46-4.12a6.11,6.11,0,0,1,5,2.17,7.8,7.8,0,0,1,1.67,5.4q12.47-23.81,18.47-32.26c.51-.74,1-1.11,1.44-1.11s.93.37,1.23,1.11a11.72,11.72,0,0,1,.77,4.23q0,4.89-4.22,12.56Q480.3,138.89,466.73,164.69Zm-1-26.14q-2.67-.12-7.79,4.67a55.87,55.87,0,0,0-9.9,12q-5.44,8.79-5.45,15.24,0,4,2.56,4.12,7,.21,15.68-16.58,6.45-12.45,6.45-17.13C467.28,139.32,466.76,138.55,465.73,138.55Z"/><path class="cls-1" d="M516.56,140.55a72.61,72.61,0,0,1,4-6.79c.6-.81,1.15-1.22,1.67-1.22.82,0,1.49.85,2,2.55a12.29,12.29,0,0,1,.56,3.44,15.68,15.68,0,0,1-1.67,6.88q-4,6.66-10.68,19.19a19.63,19.63,0,0,0-2,7.44q0,3.44,2.89,3.32,3.23-.21,7.57-5a50.29,50.29,0,0,0,7-10.39c.66-1.26,1.26-1.29,1.78-.11q1.11,2.44-1,6.9a21.54,21.54,0,0,1-6.78,8.34q-4.78,3.78-9.23,3.56-9.13-.55-9.13-9.12-6.78,8.67-13.9,8.68a8.12,8.12,0,0,1-6.73-3,12.32,12.32,0,0,1-2.39-7.9q0-8.11,5.9-16.68,6.33-9.22,13-14,5.67-4.11,10.34-4.11a6.22,6.22,0,0,1,5.23,2.28A8.11,8.11,0,0,1,516.56,140.55Zm-9.68,17.24q6.57-11.34,6.56-16.69c0-1.7-.59-2.63-1.77-2.78-1.86-.15-4.49,1.38-7.9,4.56a56.81,56.81,0,0,0-9.9,12.24q-5.56,8.9-5.56,15.46c0,2.6.85,3.93,2.55,4Q497.1,174.7,506.88,157.79Z"/><path class="cls-1" d="M556.6,164.69q-2.22,4.77-2.22,7.67,0,3.22,2.89,3.12,3.22-.22,7.45-4.9a50.23,50.23,0,0,0,7-10.46c.67-1.26,1.26-1.29,1.78-.11q1.23,2.56-.89,6.9a23.32,23.32,0,0,1-6.78,8.23q-4.79,3.68-9.24,3.45-9-.45-9-8.9-6.9,8.56-13.79,8.57a8,8,0,0,1-6.67-3,12.48,12.48,0,0,1-2.34-7.9q0-8,5.78-16.57A54,54,0,0,1,543.37,137q5.77-4.11,10.45-4.12a6.14,6.14,0,0,1,5,2.17,7.85,7.85,0,0,1,1.67,5.4q12.45-23.81,18.46-32.26c.52-.74,1-1.11,1.45-1.11s.92.37,1.22,1.11a11.51,11.51,0,0,1,.78,4.23q0,4.89-4.23,12.56Q570.17,138.89,556.6,164.69Zm-1-26.14q-2.67-.12-7.78,4.67a55.29,55.29,0,0,0-9.9,12q-5.46,8.79-5.45,15.24,0,4,2.55,4.12,7,.21,15.69-16.58,6.45-12.45,6.45-17.13C557.16,139.32,556.64,138.55,555.6,138.55Z"/><path class="cls-1" d="M580.07,178.48a3.84,3.84,0,0,1-2-3.78,7.16,7.16,0,0,1,1.78-4.62,5,5,0,0,1,4.23-2.06c2.29.08,3.45,1.67,3.45,4.79a9.57,9.57,0,0,1-2.51,6.28,7.49,7.49,0,0,1-5.84,2.95,5.1,5.1,0,0,1-2.11-.45c-.37-.15-.56-.37-.56-.66a1,1,0,0,1,.56-.67A9.33,9.33,0,0,0,580.07,178.48Z"/><path class="cls-1" d="M625.79,158.46a207.93,207.93,0,0,0,12.79-19.14,13.2,13.2,0,0,1,4-8.56,7.12,7.12,0,0,1,4.57-2.23c1.33,0,2,.64,2,1.9q0,.88-2.78,5.67c-.08,1.48-.11,3-.11,4.67q0,3.9.77,11.57.56,7,.45,10.34-.45,8.56-5,11.68,9.35-3.45,14.91-15.46c.29-.59.67-.85,1.11-.78a1.07,1.07,0,0,1,1,.78q1.11,2.44-1.55,7.34-6.47,11.69-19.69,12.24-11.68.44-16.47-8.34a14.78,14.78,0,0,1-1.78-7.23q0-5.57,3.23-8.24a2.41,2.41,0,0,1,1.22-.55c.6,0,1,.59,1.12,1.78C625.64,156.79,625.71,157.64,625.79,158.46Zm12.57-12a197.16,197.16,0,0,1-11.57,18q2.55,10.13,7.45,10.13T639,160.9C639,159.5,638.8,154.67,638.36,146.44Z"/><path class="cls-1" d="M691.08,140.55a72.25,72.25,0,0,1,4-6.79c.59-.81,1.14-1.22,1.66-1.22q1.23,0,2,2.55a12.25,12.25,0,0,1,.55,3.44,15.54,15.54,0,0,1-1.67,6.88q-4,6.66-10.67,19.19a19.49,19.49,0,0,0-2,7.44q0,3.44,2.9,3.32,3.23-.21,7.56-5a49.9,49.9,0,0,0,7-10.39c.66-1.26,1.26-1.29,1.78-.11.74,1.63.4,3.93-1,6.9a21.66,21.66,0,0,1-6.79,8.34q-4.78,3.78-9.23,3.56-9.12-.55-9.12-9.12-6.8,8.67-13.91,8.68a8.13,8.13,0,0,1-6.73-3,12.32,12.32,0,0,1-2.39-7.9q0-8.11,5.9-16.68,6.33-9.22,13-14,5.67-4.11,10.35-4.11a6.22,6.22,0,0,1,5.22,2.28A8.11,8.11,0,0,1,691.08,140.55Zm-9.68,17.24Q688,146.45,688,141.1c0-1.7-.6-2.63-1.78-2.78-1.86-.15-4.49,1.38-7.9,4.56a57.11,57.11,0,0,0-9.9,12.24q-5.57,8.9-5.56,15.46c0,2.6.85,3.93,2.56,4Q671.62,174.7,681.4,157.79Z"/><path class="cls-1" d="M735.13,159.9q-8.11,18-18.58,18-8.44,0-11.68-7.9-1.11,2.52-3.22,7.56c-.52,1.19-1.11,1.31-1.78.34a9.4,9.4,0,0,1-1.78-5.69,22.09,22.09,0,0,1,1.22-6.58q2.24-7,14.52-30.12t18-31.13c.52-.74,1-1.12,1.45-1.12.74,0,1.33.78,1.78,2.34a11,11,0,0,1,.56,3.23q0,4.89-3.9,12.12-3.23,5.34-9.9,16.91,5.24-4.68,9.57-4.67,7.78,0,7.78,10.34Q739.13,150.9,735.13,159.9Zm-5.45-22.13q-3.55-.35-8.12,4.45-6.78,7-14.46,23,.55,7.57,5.89,7.57,6.45,0,14.24-15.47,4.56-9.12,4.56-15Q731.79,138,729.68,137.77Z"/><path class="cls-1" d="M777.51,152.78a4.61,4.61,0,0,1-3,1.45,42.9,42.9,0,0,1-6.57,14.24q-5.12,7.23-11,9.23a11.17,11.17,0,0,1-3.78.67q-6,0-10.23-5.56a15.24,15.24,0,0,1-2.9-9.35q0-7.23,4.68-15.68a35.24,35.24,0,0,1,7.89-9.9q5-4.23,9.79-4.56c3-.23,5.56,1,7.57,3.78l3.78,4.45c1.26,1.85,1.74,4.45,1.44,7.78a22.79,22.79,0,0,1-.22,2.56,7.05,7.05,0,0,0,1.06-.11,8.6,8.6,0,0,1,1.17-.11Q778.4,151.67,777.51,152.78Zm-10.35,0a8,8,0,0,1-2.11-1.33,12.26,12.26,0,0,1-5.12-9.79,37.58,37.58,0,0,0-8.56,10.46q-4.89,8.77-4.89,16.35,0,5.57,3.67,5.56,6.55,0,13.12-12.35A63.16,63.16,0,0,0,767.16,152.78Zm.78-3a22.06,22.06,0,0,0,.89-8.23c-.22-1.56-.74-2.34-1.55-2.34-1.27,0-1.9,1.38-1.9,4.12A8.53,8.53,0,0,0,767.94,149.78Z"/><path class="cls-1" d="M794.86,141.55q5-.68,11.46-5.12c1.33-.89,2.33-1,3-.22a10.67,10.67,0,0,1,3,7,5.77,5.77,0,0,1-1.44,3.89q-10.12,11.46-12.24,18.47a16.42,16.42,0,0,0-.78,4.78q0,5.34,3.56,5.45,3.12.1,6.9-4.23a46,46,0,0,0,6.34-10.45q.78-1.78,1.56-.12c.81,1.71.63,4-.56,6.9a18,18,0,0,1-6.17,8,13.35,13.35,0,0,1-8.73,2.95,9.48,9.48,0,0,1-7-3.06,10.64,10.64,0,0,1-2.5-7.28q0-9.57,14.35-26a23.54,23.54,0,0,1-13,4.23q-4.68,8-9.35,16-6.33,11.46-7.67,17.69c-.3,1.33-.93,1.52-1.89.56a8.83,8.83,0,0,1-2.45-6.34,16.91,16.91,0,0,1,2.17-7.74q2.16-4.17,14.18-21.3a4.52,4.52,0,0,1-2.11-4.11q0-3.9,3.56-8.68c2.37-3,4.37-4.49,6-4.56s2.23,1,2.23,3.34Q797.31,135.32,794.86,141.55Z"/><path class="cls-1" d="M880.62,165.91q-5.34,8.34-21.36,14.9a230.1,230.1,0,0,1-10.56,22.47q-6.68,11.58-12.8,13.91a5.78,5.78,0,0,1-2.11.44c-1.56,0-3-.92-4.23-2.78q-3.1-4.66-3.11-8.67a17,17,0,0,1,.89-5.12q4.45-13.45,23.8-21,1.11-2.67,3.45-8-6.35,6.56-12.12,6.12c-4.75-.38-7.12-3.19-7.12-8.46a23.3,23.3,0,0,1,1.44-7.67,110.4,110.4,0,0,1,15.13-28.15q1.33-1.89,2.78,0a7.87,7.87,0,0,1,1.56,4.79q0,4.11-3.67,10A103.13,103.13,0,0,0,844,164.91a17.27,17.27,0,0,0-1.55,6.34c0,2,.7,3.08,2.11,3.22q5.67.45,15.57-16.46,4.79-9.12,13.46-23.91,1.33-2,2.78-.78a8.38,8.38,0,0,1,1.45,5.23,15.73,15.73,0,0,1-1.89,7.23q-9.9,19.13-14.8,30.59a58.61,58.61,0,0,0,19.69-17.14c.3-.44.63-.62,1-.55s.63.26.78.78Q883.18,161.91,880.62,165.91Zm-31.37,18.8a38.64,38.64,0,0,0-13.57,13q-4.33,6.78-4.34,11.57c0,1.34.3,2,.89,2q2,0,7-7.56A111.59,111.59,0,0,0,849.25,184.71Z"/><path class="cls-1" d="M82.09,264.08a25.93,25.93,0,0,0-1.56,8.4q0,8.73,6.57,9.06,11.45.56,22.13-15.68c.74-1.12,1.37-1.08,1.89.11q1.11,2.44-1.89,6.89a27.58,27.58,0,0,1-9.51,8.57,25.88,25.88,0,0,1-12.29,3.45q-7.12.11-11.12-4.17a15.58,15.58,0,0,1-4-11.07,28.05,28.05,0,0,1,3.34-12.79A41.35,41.35,0,0,1,85.87,243.5q5.56-4.45,10.35-4.45a6.74,6.74,0,0,1,3.56.89,21.63,21.63,0,0,1,6.56,5.78,6.18,6.18,0,0,1,1,3.78q0,5.79-4.56,11.35-5.57,6.78-11.9,6.79A13.83,13.83,0,0,1,82.09,264.08Zm1-2.45a6.87,6.87,0,0,0,3.78,1.22q4.35,0,9.46-6.78,4.89-6.45,4.89-10.35c0-1.11-.48-1.67-1.44-1.67-1.86,0-4.34,1.45-7.46,4.34A38.76,38.76,0,0,0,84,259.74C83.76,260.18,83.46,260.81,83.09,261.63Z"/><path class="cls-1" d="M111.79,264.85a206.66,206.66,0,0,0,12.79-19.13,13.16,13.16,0,0,1,4-8.56,7,7,0,0,1,4.56-2.23c1.33,0,2,.63,2,1.89q0,.9-2.78,5.68c-.08,1.48-.11,3-.11,4.67q0,3.9.77,11.57.56,7,.45,10.34-.45,8.57-5,11.68,9.34-3.45,14.91-15.46c.29-.59.67-.85,1.11-.78a1.07,1.07,0,0,1,1,.78c.74,1.63.23,4.08-1.55,7.34q-6.47,11.69-19.69,12.24-11.69.44-16.47-8.35A14.78,14.78,0,0,1,106,269.3c0-3.7,1.08-6.45,3.23-8.23a2.41,2.41,0,0,1,1.22-.55c.6,0,1,.59,1.12,1.78C111.64,263.19,111.71,264,111.79,264.85Zm12.57-12a198.55,198.55,0,0,1-11.57,18Q115.35,281,120.24,281T125,267.3Q125,265.18,124.36,252.84Z"/><path class="cls-1" d="M155,239.83q-5.13,0-7.23-2.9a2.36,2.36,0,0,1-.56-1.33c0-.67.59-1,1.78-.89a53.28,53.28,0,0,0,9.23-.44,155.43,155.43,0,0,1,8.46-13.8,2.06,2.06,0,0,1,1.55-1c.45,0,.82.33,1.12,1a11.48,11.48,0,0,1,.77,4.12,21.1,21.1,0,0,1-2.22,8.45,9.46,9.46,0,0,1,4.73,1.17c1.67.85,2.5,1.95,2.5,3.28,0,.67-.56,1-1.67,1a30.64,30.64,0,0,0-8.68.45q-5.11,8.79-7.45,13.12-4.67,8.34-7.45,14.46a21.93,21.93,0,0,0-2.11,8.79q0,6.22,4.33,6.45,3.57.12,8-4.78a46.91,46.91,0,0,0,7.46-11.24c.37-.74.81-1.11,1.33-1.11s.78.37,1,1.11c.45,1.49.09,3.55-1.06,6.18a23.48,23.48,0,0,1-6.06,7.84c-3.93,3.49-7.82,5.15-11.68,5a9.5,9.5,0,0,1-7.12-3.4,12.53,12.53,0,0,1-2.89-8.62,23.33,23.33,0,0,1,2.12-9.23Q146.82,254.73,155,239.83Z"/><path class="cls-1" d="M172.52,284.77q-8.79,0-8.79-9a23.08,23.08,0,0,1,1.34-7.23,104.36,104.36,0,0,1,6.56-14.35,122.51,122.51,0,0,1,7.68-12.68c.59-.82,1.14-1.23,1.66-1.23.82,0,1.49.81,2,2.44a11.19,11.19,0,0,1,.55,3.33,16,16,0,0,1-1.67,6.88q-3.56,6.21-9.34,18a19.59,19.59,0,0,0-1.78,7.1c0,2.37,1,3.51,2.89,3.44q3.57-.23,7.9-4.86a38.62,38.62,0,0,0,6.56-10.27c.6-1.11,1.19-1.11,1.78,0q1.33,2.56-.78,6.9a21,21,0,0,1-7.11,8.34A16.54,16.54,0,0,1,172.52,284.77ZM190.65,232a7.12,7.12,0,0,1,.78,3.23q0,5.11-3.78,5.11a4.6,4.6,0,0,1-4-2.56,7.57,7.57,0,0,1-1.11-3.89,7,7,0,0,1,1-3.5,3,3,0,0,1,2.67-1.73C188.06,228.7,189.54,229.82,190.65,232Z"/><path class="cls-1" d="M198.1,260.85q-3.89,9.57-3.89,15.24c0,3.34,1.07,5.12,3.23,5.34q3.88.33,9.12-4.67a44.38,44.38,0,0,0,8.34-11.46c.37-.74.81-1.11,1.33-1.11s.89.37,1.12,1.11q.77,2.77-1.12,6.9-1.66,3.56-6.56,7.56-6.12,4.89-12,4.78-10-.23-10-11.12a30.35,30.35,0,0,1,.78-6.45,99.18,99.18,0,0,1,11.34-28.48,118.3,118.3,0,0,1,16.8-22.8,4,4,0,0,1,2.67-1.45,3.16,3.16,0,0,1,2.11.89,9.69,9.69,0,0,1,3.23,7.57,18.89,18.89,0,0,1-.67,4.67q-2.44,9.57-10.46,19.46A67.26,67.26,0,0,1,198.1,260.85Zm2-4.78a63.06,63.06,0,0,0,15.23-18q5-8.56,5-12.35c0-.37-.07-.59-.22-.67q-1.11-.66-6.29,7.07t-11.07,18.63A59.1,59.1,0,0,0,200.11,256.07Z"/><path class="cls-1" d="M250.83,259.18a4.64,4.64,0,0,1-3,1.45,42.68,42.68,0,0,1-6.56,14.24q-5.12,7.23-11,9.23a11.42,11.42,0,0,1-3.78.67q-6,0-10.24-5.57a15.2,15.2,0,0,1-2.89-9.34q0-7.23,4.67-15.68a35.45,35.45,0,0,1,7.9-9.9q5-4.23,9.79-4.56a8.19,8.19,0,0,1,7.56,3.78l3.79,4.45c1.26,1.85,1.74,4.45,1.44,7.78a22.79,22.79,0,0,1-.22,2.56,7.05,7.05,0,0,0,1.06-.11,8.62,8.62,0,0,1,1.16-.11C251.31,258.07,251.42,258.44,250.83,259.18Zm-10.35,0a8.05,8.05,0,0,1-2.11-1.33,12.26,12.26,0,0,1-5.12-9.79,37.54,37.54,0,0,0-8.56,10.45q-4.91,8.79-4.9,16.36c0,3.7,1.23,5.56,3.67,5.56q6.57,0,13.13-12.35A63.16,63.16,0,0,0,240.48,259.18Zm.78-3a22.06,22.06,0,0,0,.89-8.23q-.33-2.34-1.56-2.34-1.89,0-1.89,4.12A8.53,8.53,0,0,0,241.26,256.18Z"/><path class="cls-1" d="M284.42,264.08a25.93,25.93,0,0,0-1.56,8.4q0,8.73,6.56,9.06,11.46.56,22.14-15.68c.74-1.12,1.37-1.08,1.89.11q1.11,2.44-1.89,6.89a27.76,27.76,0,0,1-9.51,8.57,25.91,25.91,0,0,1-12.29,3.45q-7.12.11-11.13-4.17a15.57,15.57,0,0,1-4-11.07A28.05,28.05,0,0,1,278,256.85,41.22,41.22,0,0,1,288.2,243.5q5.57-4.45,10.34-4.45a6.69,6.69,0,0,1,3.56.89,21.67,21.67,0,0,1,6.57,5.78,6.25,6.25,0,0,1,1,3.78q0,5.79-4.56,11.35-5.57,6.78-11.9,6.79A13.83,13.83,0,0,1,284.42,264.08Zm1-2.45a6.87,6.87,0,0,0,3.78,1.22q4.33,0,9.46-6.78,4.89-6.45,4.89-10.35c0-1.11-.48-1.67-1.45-1.67q-2.78,0-7.45,4.34a38.76,38.76,0,0,0-8.34,11.35C286.09,260.18,285.79,260.81,285.42,261.63Z"/><path class="cls-1" d="M327.69,250.39a54.67,54.67,0,0,1,8.67-7.67q5-3.56,7.57-3.23a5.81,5.81,0,0,1,3.72,2.51,8.26,8.26,0,0,1,1.62,5.08,10,10,0,0,1-1,4.24q-3.9,6.57-10.35,19a17.66,17.66,0,0,0-1.78,7q0,4.68,3.56,4.46,6-.33,14.24-15.46c.59-1.11,1.22-1.15,1.89-.11q1.34,2.12-1,6.95a22.7,22.7,0,0,1-6.9,8.29q-4.89,3.68-9.56,3.67-9.92,0-9.9-9.12a22.75,22.75,0,0,1,1.44-7.45A76,76,0,0,1,337,254.18q4.56-7.68,4.56-8.68c0-.3-.07-.48-.22-.56-.74-.29-2.45.41-5.12,2.12a50.24,50.24,0,0,0-9.56,8.34q-6.68,7.23-16.24,28.25c-.52,1.19-1.23,1.34-2.12.45a7.82,7.82,0,0,1-2.11-5.79,19.38,19.38,0,0,1,1-5.67q1.66-5.11,7.12-15.13A200,200,0,0,1,325,239.83c.81-1.19,1.59-1.19,2.33,0a9.75,9.75,0,0,1,1.23,5A19.74,19.74,0,0,1,327.69,250.39Z"/><path class="cls-1" d="M404.44,240.16a15.13,15.13,0,0,1,6.11,6.12,6.3,6.3,0,0,1,.67,2.89,17,17,0,0,1-1.89,6.56q-3,6.79-3.11,7.12a1.45,1.45,0,0,1-2.34.89c-2.22-1.11-3.34-3.11-3.34-6a11.89,11.89,0,0,1,.67-3.68c.3-.89,1-2.55,2.11-5a12,12,0,0,0,1.34-4c0-.81-.37-1.22-1.11-1.22-1.49,0-3.71,1.52-6.68,4.56a46.56,46.56,0,0,0-7.9,11.35q-3.56,7.23-3.56,13.12,0,8.68,6.35,8.79,11.57.12,21.91-15.79a1.22,1.22,0,0,1,1-.67,1.08,1.08,0,0,1,1,.78c.59,1.48-.07,3.71-2,6.67a26.74,26.74,0,0,1-9.23,8.51,25,25,0,0,1-12.24,3.62q-7.12.11-11.07-4.12a15.5,15.5,0,0,1-3.95-11,28.63,28.63,0,0,1,3.34-12.79,39.19,39.19,0,0,1,10.12-13.13q5.46-4.46,10.24-4.45A7.1,7.1,0,0,1,404.44,240.16Z"/><path class="cls-1" d="M447.59,247a72.25,72.25,0,0,1,4-6.79c.59-.81,1.15-1.22,1.67-1.22.81,0,1.48.85,2,2.55a12.29,12.29,0,0,1,.56,3.44,15.71,15.71,0,0,1-1.67,6.88q-4,6.66-10.68,19.19a19.45,19.45,0,0,0-2,7.43q0,3.45,2.89,3.33,3.22-.21,7.56-5a49.81,49.81,0,0,0,7-10.38c.67-1.26,1.26-1.29,1.78-.11q1.11,2.44-1,6.9a21.66,21.66,0,0,1-6.79,8.34q-4.79,3.78-9.23,3.56-9.12-.56-9.12-9.12-6.78,8.67-13.91,8.67a8.09,8.09,0,0,1-6.72-3,12.26,12.26,0,0,1-2.4-7.9q0-8.12,5.9-16.68,6.35-9.24,13-14c3.79-2.74,7.23-4.11,10.35-4.11a6.24,6.24,0,0,1,5.23,2.28A8.16,8.16,0,0,1,447.59,247Zm-9.67,17.24q6.56-11.35,6.56-16.69c0-1.7-.6-2.63-1.78-2.78q-2.79-.22-7.9,4.56a57.41,57.41,0,0,0-9.9,12.24q-5.56,8.89-5.56,15.46,0,3.9,2.56,4Q428.13,281.1,437.92,264.19Z"/><path class="cls-1" d="M487.64,271.08q-2.24,4.79-2.23,7.68,0,3.23,2.9,3.11c2.15-.14,4.63-1.78,7.45-4.89a50.62,50.62,0,0,0,7-10.46c.66-1.26,1.26-1.29,1.78-.11q1.21,2.56-.89,6.9a23.25,23.25,0,0,1-6.79,8.23q-4.78,3.68-9.23,3.45-9-.45-9-8.9-6.9,8.57-13.8,8.56a8,8,0,0,1-6.67-3,12.48,12.48,0,0,1-2.33-7.9q0-8,5.78-16.57a54,54,0,0,1,12.79-13.79q5.79-4.12,10.46-4.12a6.08,6.08,0,0,1,5,2.17,7.78,7.78,0,0,1,1.67,5.39Q504,223,510,214.58c.51-.74,1-1.12,1.44-1.12s.93.38,1.23,1.12a11.7,11.7,0,0,1,.77,4.22q0,4.9-4.22,12.57Q501.21,245.27,487.64,271.08Zm-1-26.14q-2.67-.1-7.79,4.68a55.63,55.63,0,0,0-9.9,12q-5.44,8.79-5.45,15.24,0,4,2.56,4.11,7,.22,15.68-16.57,6.45-12.45,6.45-17.13C488.19,245.72,487.67,244.94,486.64,244.94Z"/><path class="cls-1" d="M537.47,247a74.92,74.92,0,0,1,4-6.79c.6-.81,1.15-1.22,1.67-1.22q1.23,0,2,2.55a12.25,12.25,0,0,1,.55,3.44,15.58,15.58,0,0,1-1.67,6.88q-4,6.66-10.68,19.19a19.63,19.63,0,0,0-2,7.43q0,3.45,2.89,3.33,3.22-.21,7.57-5a50.2,50.2,0,0,0,7-10.38c.66-1.26,1.26-1.29,1.78-.11q1.11,2.44-1,6.9a21.54,21.54,0,0,1-6.78,8.34q-4.78,3.78-9.23,3.56-9.12-.56-9.12-9.12-6.8,8.67-13.91,8.67a8.13,8.13,0,0,1-6.73-3,12.32,12.32,0,0,1-2.39-7.9q0-8.12,5.9-16.68,6.33-9.24,13-14,5.67-4.11,10.34-4.11a6.22,6.22,0,0,1,5.23,2.28A8.11,8.11,0,0,1,537.47,247Zm-9.68,17.24q6.57-11.35,6.56-16.69c0-1.7-.59-2.63-1.77-2.78q-2.79-.22-7.9,4.56a56.81,56.81,0,0,0-9.9,12.24q-5.56,8.89-5.56,15.46,0,3.9,2.55,4Q518,281.1,527.79,264.19Z"/><path class="cls-1" d="M602,271.08q-2.22,4.79-2.22,7.68,0,3.23,2.89,3.11c2.15-.14,4.64-1.78,7.45-4.89a50.23,50.23,0,0,0,7-10.46c.67-1.26,1.26-1.29,1.78-.11q1.23,2.56-.89,6.9a23.32,23.32,0,0,1-6.78,8.23q-4.79,3.68-9.24,3.45-9-.45-9-8.9-6.88,8.57-13.79,8.56a8,8,0,0,1-6.67-3,12.48,12.48,0,0,1-2.34-7.9q0-8,5.79-16.57a53.83,53.83,0,0,1,12.79-13.79q5.78-4.12,10.45-4.12a6.12,6.12,0,0,1,5,2.17,7.83,7.83,0,0,1,1.67,5.39q12.45-23.79,18.46-32.25c.52-.74,1-1.12,1.45-1.12s.92.38,1.22,1.12a11.5,11.5,0,0,1,.78,4.22q0,4.9-4.23,12.57Q615.55,245.27,602,271.08Zm-1-26.14q-2.67-.1-7.78,4.68a55.05,55.05,0,0,0-9.9,12q-5.46,8.79-5.45,15.24,0,4,2.55,4.11,7,.22,15.69-16.57,6.45-12.45,6.45-17.13Q602.54,244.94,601,244.94Z"/><path class="cls-1" d="M626,264.08a25.93,25.93,0,0,0-1.56,8.4q0,8.73,6.57,9.06,11.44.56,22.13-15.68c.74-1.12,1.37-1.08,1.89.11q1.11,2.44-1.89,6.89a27.58,27.58,0,0,1-9.51,8.57,25.88,25.88,0,0,1-12.29,3.45q-7.12.11-11.12-4.17a15.58,15.58,0,0,1-4-11.07,28.05,28.05,0,0,1,3.34-12.79,41.35,41.35,0,0,1,10.23-13.35q5.57-4.45,10.35-4.45a6.74,6.74,0,0,1,3.56.89,21.63,21.63,0,0,1,6.56,5.78,6.18,6.18,0,0,1,1,3.78q0,5.79-4.56,11.35-5.57,6.78-11.9,6.79A13.83,13.83,0,0,1,626,264.08Zm1-2.45a6.87,6.87,0,0,0,3.78,1.22q4.34,0,9.46-6.78,4.89-6.45,4.89-10.35c0-1.11-.48-1.67-1.44-1.67-1.86,0-4.34,1.45-7.46,4.34a38.76,38.76,0,0,0-8.34,11.35C627.68,260.18,627.38,260.81,627,261.63Z"/><path class="cls-1" d="M665.27,239.83q-5.12,0-7.23-2.9a2.4,2.4,0,0,1-.55-1.33c0-.67.59-1,1.78-.89a53.32,53.32,0,0,0,9.23-.44,158.52,158.52,0,0,1,8.45-13.8,2.1,2.1,0,0,1,1.56-1c.45,0,.82.33,1.11,1a11.28,11.28,0,0,1,.78,4.12,21.1,21.1,0,0,1-2.22,8.45,9.4,9.4,0,0,1,4.72,1.17c1.67.85,2.51,1.95,2.51,3.28,0,.67-.56,1-1.67,1a30.64,30.64,0,0,0-8.68.45q-5.12,8.79-7.45,13.12-4.67,8.34-7.45,14.46a22,22,0,0,0-2.12,8.79q0,6.22,4.34,6.45,3.55.12,8-4.78a46.89,46.89,0,0,0,7.45-11.24c.37-.74.82-1.11,1.34-1.11s.78.37,1,1.11q.66,2.24-1.06,6.18a23.48,23.48,0,0,1-6.06,7.84c-3.93,3.49-7.82,5.15-11.68,5a9.5,9.5,0,0,1-7.12-3.4,12.53,12.53,0,0,1-2.89-8.62,23.3,23.3,0,0,1,2.11-9.23Q657.16,254.73,665.27,239.83Z"/><path class="cls-1" d="M711.21,247a72.25,72.25,0,0,1,4-6.79c.59-.81,1.15-1.22,1.67-1.22.81,0,1.48.85,2,2.55a12.25,12.25,0,0,1,.55,3.44,15.7,15.7,0,0,1-1.66,6.88q-4,6.66-10.68,19.19a19.45,19.45,0,0,0-2,7.43q0,3.45,2.89,3.33,3.22-.21,7.56-5a49.81,49.81,0,0,0,7-10.38c.67-1.26,1.26-1.29,1.78-.11q1.11,2.44-1,6.9a21.66,21.66,0,0,1-6.79,8.34q-4.78,3.78-9.23,3.56-9.12-.56-9.12-9.12-6.8,8.67-13.91,8.67a8.13,8.13,0,0,1-6.73-3,12.32,12.32,0,0,1-2.39-7.9q0-8.12,5.9-16.68,6.34-9.24,13-14,5.67-4.11,10.35-4.11a6.24,6.24,0,0,1,5.23,2.28A8.16,8.16,0,0,1,711.21,247Zm-9.67,17.24q6.56-11.35,6.56-16.69c0-1.7-.6-2.63-1.78-2.78q-2.79-.22-7.9,4.56a57.41,57.41,0,0,0-9.9,12.24Q683,270.41,683,277q0,3.9,2.56,4Q691.74,281.1,701.54,264.19Z"/><path class="cls-1" d="M731.35,260.85q-3.9,9.57-3.9,15.24,0,5,3.23,5.34,3.89.33,9.12-4.67a44.38,44.38,0,0,0,8.34-11.46c.37-.74.82-1.11,1.34-1.11s.89.37,1.11,1.11q.78,2.77-1.11,6.9-1.66,3.56-6.57,7.56-6.1,4.89-12,4.78-10-.23-10-11.12a30.35,30.35,0,0,1,.78-6.45A99.47,99.47,0,0,1,733,238.49a119.13,119.13,0,0,1,16.8-22.8,4,4,0,0,1,2.67-1.45,3.14,3.14,0,0,1,2.11.89,9.69,9.69,0,0,1,3.23,7.57,18.43,18.43,0,0,1-.67,4.67q-2.45,9.57-10.45,19.46A67.67,67.67,0,0,1,731.35,260.85Zm2-4.78a63.25,63.25,0,0,0,15.24-18q5-8.56,5-12.35c0-.37-.07-.59-.22-.67q-1.11-.66-6.28,7.07T736,250.73A57,57,0,0,0,733.35,256.07Z"/><path class="cls-1" d="M756.93,260.85q-3.9,9.57-3.89,15.24,0,5,3.22,5.34,3.9.33,9.12-4.67a44.18,44.18,0,0,0,8.35-11.46c.37-.74.81-1.11,1.33-1.11s.89.37,1.11,1.11q.78,2.77-1.11,6.9-1.66,3.56-6.56,7.56-6.12,4.89-12,4.78-10-.23-10-11.12a30.35,30.35,0,0,1,.78-6.45,99.22,99.22,0,0,1,11.35-28.48,118.3,118.3,0,0,1,16.8-22.8,4,4,0,0,1,2.66-1.45,3.18,3.18,0,0,1,2.12.89,9.68,9.68,0,0,1,3.22,7.57,18.85,18.85,0,0,1-.66,4.67q-2.46,9.57-10.46,19.46A67.47,67.47,0,0,1,756.93,260.85Zm2-4.78a63.25,63.25,0,0,0,15.24-18q5-8.56,5-12.35c0-.37-.08-.59-.23-.67q-1.11-.66-6.28,7.07T761.6,250.73A57,57,0,0,0,758.93,256.07Z"/><path class="cls-1" d="M781.85,264.08a25.93,25.93,0,0,0-1.56,8.4q0,8.73,6.56,9.06,11.46.56,22.14-15.68c.74-1.12,1.37-1.08,1.89.11q1.11,2.44-1.89,6.89a27.76,27.76,0,0,1-9.51,8.57,25.91,25.91,0,0,1-12.29,3.45q-7.12.11-11.13-4.17a15.57,15.57,0,0,1-4-11.07,28.16,28.16,0,0,1,3.33-12.79,41.24,41.24,0,0,1,10.24-13.35q5.55-4.45,10.34-4.45a6.69,6.69,0,0,1,3.56.89,21.67,21.67,0,0,1,6.57,5.78,6.25,6.25,0,0,1,1,3.78q0,5.79-4.56,11.35-5.56,6.78-11.91,6.79A13.82,13.82,0,0,1,781.85,264.08Zm1-2.45a6.87,6.87,0,0,0,3.78,1.22q4.33,0,9.45-6.78,4.9-6.45,4.9-10.35c0-1.11-.48-1.67-1.45-1.67-1.85,0-4.34,1.45-7.45,4.34a38.76,38.76,0,0,0-8.34,11.35C783.51,260.18,783.22,260.81,782.85,261.63Z"/></g></g></svg>